<svg xmlns="http://www.w3.org/2000/svg" viewBox="0 0 14160 6270"><path d="m2970 720 290 10c150 0 280 70 390 160 70 60 150 120 210 190 100 110 180 270 180 420v120c-10 50 0 90-20 130l-110 180c-90 150-200 290-300 430l-390 550-100 140c-60-70-100-150-170-220-120-110-250-190-390-270-100-40-200-70-310-90h-40c-70-20-140-10-210-20 30-40 40-90 60-140l100-250 290-800c50-130 100-270 190-380 80-90 210-150 330-160"/><path d="M3130 770c70-20 140 0 200 10s110 50 170 70l80 50-160-70-170-30c-30-10-70-20-100-10-40 40-50 110-70 160l-70 100-40 110c-30 40-30 90-40 130l-20-20c0 40 0 80-30 110-30 20-30 40-40 70l-60 140c-30 90-80 170-120 250l-160 320-40 100 10 90c60 80 150 110 210 190l100 50 40 40 100 80 100 100c10 10 30 20 40 10 40-30 80-60 100-100l110-180c20-30 30-70 60-100l60-60 110-130 130-190 160-240 30-70v30l50-100c10-30 40-40 50-60 30-50 40-90 50-140l10-100v190c-10 50-40 90-70 130-70 120-150 240-240 350-40 60-70 120-120 170l-190 260-140 210c-40 70-90 130-150 190l-50-30-140-150-150-90-200-130c-60-30-80-90-100-150-20-70 0-130 30-190l100-220 260-570 220-480c20-40 50-90 90-100" fill="#404142"/><path d="M3150 790c30-10 70 0 100 10l170 30 160 70 110 90 90 70c-70-40-120-90-190-120-90-50-200-90-300-110h-80l-40 70-140 280-150 320-160 340-190 390c-20 30-30 60-20 90 20 50 80 90 130 120a3570 3570 0 01 410 300l60-60 170-250 150-210c160-230 310-470 450-710 20-40 60-90 70-130s0-80-10-110l40 110-10 100c-10 50-20 90-50 140-10 20-40 30-50 60l-50 100v-30l-30 70-160 240-130 190-110 130-60 60c-30 30-40 70-60 100-30 70-70 120-110 180-20 40-60 70-100 100-10 10-30 0-40-10l-100-100-100-80-40-40-90-50c-70-70-160-110-220-190l-10-90 40-100 160-320c40-80 90-160 120-250l60-140c10-30 10-50 40-70 30-30 30-70 30-110l20 20c10-40 10-90 40-130l40-110 70-100c20-50 30-120 70-160" fill="#acadad"/><path d="M3210 830h80c100 20 210 60 300 110 70 30 120 80 190 120 60 60 120 130 160 210 10 30 20 70 10 110s-50 90-70 130c-140 240-290 480-450 710l-150 210-170 250-60 60-80-60c-100-90-220-160-330-240-50-30-110-70-130-120-10-30 0-60 20-90l190-390 160-340 150-320 140-280 40-70" fill="#fff"/><path d="M5720 1590v590h570v250h-570v1390l30 150c40 90 120 150 210 180l150 10h180v250l-250 10a590 590 0 01-570-480c-20-80-10-150-20-230V2430h-400v-250h400v-150l10-390zm1900 540a660 660 0 01 660 660v1620h-90l-150-220a670 670 0 01-470 270c-90 0-190 0-270-20a660 660 0 01-510-640 660 660 0 01 520-670l250-10h450v-340a390 390 0 00-350-390h-190a390 390 0 00-390 340v130l-270-50a660 660 0 01 530-670l280-10zm2300 70c110 60 210 160 270 270 40-60 90-120 150-170 120-110 290-170 450-170a660 660 0 01 660 660v1620l-260 10v-120l-10-1530c0-150-90-290-230-350-90-40-190-30-290-30-140 0-280 80-350 200-20 60-40 120-40 180v1640h-270V2780a390 390 0 00-280-380c-60-20-110-10-170-20l-150 10a390 390 0 00-310 390v1630h-270V2180a1550 1550 0 01 90 0l150 220c100-140 260-240 430-260 150-20 290-10 430 60zm2820-70 190 10a660 660 0 01 560 640v1020a660 660 0 01-600 660l-220-10c-160-20-300-100-410-220v1080h-270V2180h90l150 220 90-100c120-100 260-160 420-170"/><path d="M12700 2380c100 10 190 0 280 30 140 60 240 210 240 360v1050c0 160-100 300-250 360-80 30-150 20-230 30-80 0-160 0-240-30-140-60-240-200-240-360V2770c0-150 90-290 230-350 70-30 140-40 210-40" fill="#fff"/><path d="M2000 2450c70 10 140 0 210 20l-150-10-120 20h-90l150-30"/><path d="m2060 2460 150 10h40c-80 10-160-10-230 40l150 20h-120l-180 10c-60 10-120 40-170 70l-70 50-30 10 100-120c50-30 100-60 150-70h90l120-20" fill="#acadad"/><path d="m1870 2540 180-10 150 10c110 10 210 40 310 90h-70c-90-30-190-70-290-70-80 0-150 0-220 40-50 30-80 90-90 150h80l160-20 90-10 130 30a1070 1070 0 01 520 330c40 50 60 110 100 140 30-50 60-120 40-170-20-70-60-110-110-160a750 750 0 00-140-120l10-30c120 90 220 180 310 300 40 60 80 120 100 190 20 60 30 120 20 180 0 80-30 150-50 230-40-70-100-120-150-180l-90-110c10-30 30-60 30-100 0-30-20-50-40-70l-70-100c-70-100-170-170-280-230-100-60-200-90-320-100h-100c-70 10-140 20-200 60h-130c-70-20-150-30-220-30h-20l30-30 80-10c20-20 10-50 30-70l50-60c50-30 110-60 170-70"/><path d="M2150 2560c100 0 200 40 290 70h70l130 70 80 40-10 30c-50-30-100-50-140-90-30-20-70-30-110-30-100-40-220-80-330-60-80 10-130 70-160 130l110 10-160 20h-80c10-60 40-120 90-150 70-40 140-40 220-40" fill="#404142"/><path d="m2460 2650-130-10c-70-10-150 30-210 70l50 10-90 10-110-10c30-60 80-120 160-130 110-20 230 20 330 60" fill="#828282"/><path d="m1700 2610-50 60c-20 20-10 50-30 70l-80 10c40-20 60-60 90-90l70-50" fill="#404142"/><path d="m2330 2640 130 10c40 0 80 10 110 30 40 40 90 60 140 90l70 60c20 40 50 100 40 140 0 30-40 30-60 40-130-120-280-220-460-260l-130-30-50-10c60-40 140-80 210-70" fill="#acadad"/><path d="M1630 2660c-30 30-50 70-90 90l-30 30h-210l-160 20 150-40h190c50 0 90-60 120-90" fill="#828282"/><path d="M2080 2750h100l-100 20c60 30 130 40 200 60l30 40c-70 0-140-30-210-40-80-10-140-50-220-20 60-40 130-50 200-60" fill="#acadad"/><path d="M2180 2750c120 10 220 40 320 100 110 60 210 130 280 230 20 70 10 140 30 220l40 40 10 10 90 100c-20 20-40 0-60-10l-240-200-20-50-40-30-210-130-40-10h-10l-10 40 210 130v20a850 850 0 01-90-30c-80-30-160-50-230-90-90-50-190-90-290-120l-100-40c-40-10-80-40-130-40h-140a1130 1130 0 00 40 20h-410c30-30 60-50 90-50l240-30h20c80 10 150 60 220 50h50l190 50 220 100 50 10c0-20 10-30-10-40l-60-10-90-40c-110-50-220-80-340-110a1330 1330 0 01-30-20l130-10h20c80-30 140 10 220 20 70 10 140 40 210 40l-30-40c-70-20-140-30-200-60l100-20" fill="#fff"/><path d="M1530 2780c70 0 150 10 220 30h-120c-30 20-60 30-100 20h-20l-30-20h50" fill="#828282"/><path d="M1750 2810h110l-130 10 30 20h-110l150 40h-50c-70 10-140-40-220-50 40 10 70 0 100-20h120zm-470 0a1520 1520 0 01 200 0l30 20-240 30c-30 0-60 20-90 50h100v10c-100 10-200 40-290 80 50-40 20-100 70-140 60-40 150-40 220-50" fill="#acadad"/><path d="M1760 2840c120 30 230 60 340 110l-110-20-190-50-150-40h110" fill="#404142"/><path d="m2780 2830 70 60 50 80c10 40 0 90-20 120l-60-10-60-70c20-10 60-10 60-40 10-40-20-100-40-140" fill="#828282"/><path d="M1000 2880a430 430 0 01-30 50l-80 140c-30 30-50 70-70 120l-20 20c-30 0-50 10-70 40-50 40-70 100-100 160l-100 130c0-50 0-110 20-160 40-180 160-360 320-450 50-20 80-50 130-50"/><path d="M1550 2890h140c50 0 90 30 130 40l100 40-190-40c-80-20-160-20-240-20l-210 10v-10h310a1130 1130 0 01-40-20" fill="#828282"/><path d="M2850 2890c50 50 90 90 110 160 20 50-10 120-40 170-40-30-60-90-100-140l60 10c20-30 30-80 20-120l-50-80" fill="#404142"/><path d="m1280 2920 210-10c80 0 160 0 240 20l190 40c100 30 200 70 290 120 30 30 50 40 90 50l180 80 130 100 140 120 110 90 100 130c30 30 60 60 100 70l10-70 80 90a1340 1340 0 01 100 190c10 50 0 90 20 130l50 140c0 90 10 160-20 250-20 60-30 130-80 180s-120 60-170 110c-90 100-180 190-290 260-60 40-120 60-180 80l-160 30c-140 20-260 10-400-10l-170-30-100-40c130 20 260 60 400 70 110 10 210 0 320-30 80-10 150-40 200-100l-220 80c-70 10-130 30-200 30l-140-10-270-50c-90-20-180-50-260-100l-120-90 10-30 110 60c90 40 170 80 270 100l220 30c60 10 110 20 170 10 50 0 100 0 140-20l100-40 170-110c70-50 140-130 180-210h20c-20 60-60 100-90 150l-100 90-160 110-70 30a1100 1100 0 01-540-20c-110-10-210-50-310-100l-100-60c20 40 50 60 80 80 80 30 160 70 250 90 140 40 280 60 420 70l180-30c70-10 130-50 200-80 80-30 120-90 180-140l160-140c30-30 60-60 60-100 10-50-10-90-20-130a1360 1360 0 00-390-580c-190-200-420-330-670-440-60-30-120-60-190-70-120-30-250-60-370-70h-230c-90 10-190 20-280 60-80 40-160 90-220 160-30 40-50 80-60 130l-40 80-30 110v-160c20-60 40-120 80-170 60-80 150-130 240-170 80-30 180-50 260-60 70 0 130-20 200-10a740 740 0 00 80 0l210 40c120 20 240 50 350 100l320 170 220 140 150 150c80 60 150 140 210 220l160 290 60 170 10 150c50-50 50-120 60-180 0-70 30-130 40-200l10-140v-70l-40-80-30-70-30-70c-20-40-30-70-60-100l-110-120-290-270c-70-60-160-110-240-160-90-60-190-110-300-150a1660 1660 0 00-770-130l-200 40c-60 10-110 40-160 70 10-30 30-40 50-60 90-40 190-70 290-80zm820 30 90 40 60 10c20 10 10 20 10 40l-50-10-220-100 110 20"/><path d="M1190 3020c30 10 50 40 40 80l-40 100-70 30c40-40 40-70 40-110l-40-50c-40-10-80 20-110 40-40 20-50 70-90 100s-90 30-120 80h30l-60 10 30-90 20-20-10 60 130-120c40-40 100-80 160-100 30-10 60-20 90-10zm1140 0h10l110 70c50 30 90 60 140 70l40 30 20 50-240-150-70-30h-20l10-40" fill="#acadad"/><path d="m2340 3020 40 10 210 130c-50-10-90-40-140-70l-110-70"/><path d="m3030 3040 90 120v-90l30 60a710 710 0 00-20-10l20 130-20-20c-20-70-60-130-100-190" fill="#acadad"/><path d="m2340 3060 70 30 240 150 240 200 50 60-190-160c-60-60-150-110-220-150l-210-130"/><path d="m1120 3070 40 50c0 40 0 70-40 110l-100 10 90-30c-40 0-80-10-130 10-50 10-100 20-150 50l20 10-20 10h-30c30-50 80-50 120-80s50-80 90-100c30-20 70-50 110-40" fill="#828282"/><path d="m2780 3080 70 100v160l-40-40c-20-80-10-150-30-220zm-570 10c70 40 150 60 230 90a850 850 0 00 90 30v-20c70 40 160 90 220 150l190 160-50-60c20 10 40 30 60 10 50 70 110 120 150 190l20 30 30-200c10-60 0-120 20-170l10-90c20 60 20 120 10 180l-50 270c-10 40 0 60 10 90l-80-90-60-70 30 80-50-10-110-130a5430 5430 0 00-260-230l-140-80-180-80c-40-10-60-20-90-50" fill="#acadad"/><path d="m3130 3120 20 10 30 80-10 90c-20 50-10 110-20 170l-30 200-20-30c20-80 50-150 50-230 10-60 0-120-20-180l20 20-20-130zm-280 60c20 20 40 40 40 70 0 40-20 70-30 100l-10-10v-160" fill="#404142"/><path d="m1110 3210-90 30-170 40-20-10c50-30 100-40 150-50 50-20 90-10 130-10"/><path d="m800 3210-30 90-70 50c10-40 40-70 60-110l-30 10c20-30 40-40 70-40" fill="#404142"/><path d="m2480 3220 140 80 80 50 180 180 110 130 50 10-30-80 60 70-10 70c-40-10-70-40-100-70l-100-130-110-90-140-120-130-100" fill="#828282"/><path d="M760 3240c-20 40-50 70-60 110l-70 60c30-60 50-120 100-160zm380 50h230c120 10 250 40 370 70a2130 2130 0 01 1070 760l-10 10c-120-140-240-260-380-380l-100-80a1600 1600 0 00-340-170c30 30 70 40 100 60l200 110c60 30 100 80 150 120l210 200c90 80 160 170 210 270 30 60 50 120 60 190v100l-20-10-20-120c-30-110-80-200-150-290-40-70-100-120-160-180-50-30-90-80-130-120-60-50-110-110-180-150l-240-130c-70-30-130-70-210-80l-150-50-270-50c-100 0-200 0-300 20-80 20-160 40-230 80-80 60-150 100-190 190h-20l10-50c30-60 100-110 160-150 90-70 180-80 290-110l120-10h120c160 10 320 50 470 110-70-40-150-70-230-90l-280-40c-150 0-300 20-440 70-80 40-160 90-220 160l-20 10 20-50c60-70 140-120 220-160 90-40 190-50 280-60" fill="#acadad"/><path d="m1300 3320 280 40c80 20 160 50 230 90-150-60-310-100-470-110h-120l-120 10c-110 30-200 40-290 110-60 40-130 90-160 150-50 90-20 190 0 280-10-80-10-150 10-230 40-90 110-130 190-190 70-40 150-60 230-80 100-20 200-20 300-20l270 50 150 50c80 10 140 50 210 80l240 130c70 40 120 100 180 150 40 40 80 90 130 120l-10 10-170-150c-50-50-110-100-180-130-140-90-270-170-440-200l-170-50c-120-30-260-50-380-30-180 0-360 80-480 210-30 30-40 70-50 110v170c0 90 0 170 50 250l110 190 130 160c50 60 110 100 170 150l160 130c40 40 90 60 140 90l100 80c60 40 120 50 170 90-50-10-110-40-160-70-40-10-60-50-100-70l-150-100-160-130-180-150c-80-100-170-200-230-310l-10-40-40-20-40-80c-20-70-20-150-30-220-20-60-20-110-10-170l40-120c60-70 140-120 220-160 140-50 290-70 440-70"/><path d="M7460 3330h550v390c0 80 10 150-20 220-50 150-190 260-340 260h-220c-150 0-290-100-350-240-30-80-20-160-20-250a390 390 0 01 400-380zm-6250 70c120-20 260 0 380 30l170 50-30 10-300-60h-270c-130 20-240 70-350 150l-70 40-10-10c120-130 300-210 480-210" fill="#fff"/><path d="M1160 3430h270l300 60c50 20 110 30 160 60 90 30 170 80 250 120 70 40 140 80 200 140 70 50 110 120 180 170l-10-10c-30-10-60-30-80-60-30-30-60-70-100-90l-130-100-120-50-190-100c-80-40-170-60-260-80l-170-30c-80-20-160-20-240-10-90 10-180 40-260 70-70 40-110 90-170 140l-40 70-10 130v140c0-80 0-150 20-230 30-70 100-140 170-180 100-60 210-90 320-110 100-10 200 0 300 20l240 60c70 20 120 50 180 80 40 20 70 30 100 60-70-20-140-70-220-90-80-40-150-70-240-80l-240-20c-140-20-290 30-410 100-90 50-150 120-180 220l-10 160c0 60 20 110 50 160l-10-160c-10-60 0-120 10-180 40-100 140-170 240-210 70-50 150-50 230-70 80-10 160 0 250 10a1820 1820 0 01 490 170c90 40 160 100 240 160 50 30 80 80 120 120l120 130c50 40 70 90 100 140l-10 20c-30-60-70-130-130-180l-100-110-90-100-210-130-120-60c-70-50-150-60-240-90l-240-60-190 10c-80 10-150 10-210 60-70 40-140 80-180 150-40 60-70 130-60 210s20 170 60 240c50 100 110 180 190 260l140 140 130 80c30 40 80 50 100 100l-310-240c-80-70-150-150-210-240l-90-120-70-90c-30-40-50-70-60-120v-240l50-80c30-30 50-50 50-90 110-80 220-130 350-150"/><path d="m1460 3460 170 30-80 10c-100-20-200-30-300-20-110 20-220 40-320 110-70 40-140 110-170 180-20 80-20 150-20 230v-140l10-130 40-70c60-50 100-100 170-140 80-30 170-60 260-70 80-10 160-10 240 10" fill="#fff"/><g fill="#acadad"><path d="M1760 3480c170 30 300 110 440 200 70 30 130 80 180 130l170 150 140 140c60 110 130 200 150 330 0 50 0 110-20 160 0-60 0-110-20-170-30-120-110-240-180-340-30-30-60-80-100-100-70-50-110-120-180-170-60-60-130-100-200-140-80-40-160-90-250-120-50-30-110-40-160-60a1310 1310 0 01 30-10"/><path d="M1630 3490a1180 1180 0 01 450 180l120 50 130 100c40 20 70 60 100 90 20 30 50 50 80 60 30 50 70 80 110 120l110 190c30 50 40 100 50 160-20 30-30 60-30 100v60l-30 30 10-160v-70c-40-140-120-270-220-370l-120-100-100-110c-70-40-130-110-210-120l130 80 150 120c40 60 90 100 140 140 30 40 70 70 90 120 40 60 100 130 110 210l-10 170c-10 50-10 110-30 150a590 590 0 01-40 90c-60 70-150 120-230 150l-40-10c110-50 210-110 260-220 40-70 50-150 50-230l-10-120-40-90c-30-50-50-100-100-140l-120-130c-40-40-70-90-120-120-80-60-150-120-250-150l-180-90 10-20c80 20 150 70 220 90-30-30-60-40-100-60-60-30-110-60-180-80l-240-60 80-10"/></g><path d="m1370 3510 240 20c90 10 160 40 240 80l-10 20c-100-40-200-80-300-90-80-10-170-20-250-10-80 20-160 20-230 70-100 40-200 110-240 210-30 40-20 80-30 130l-10-110c30-100 90-170 180-220 120-70 270-120 410-100" fill="#fff"/><path d="M1980 3500a1600 1600 0 01 340 170l100 80c140 120 260 240 380 380 70 130 130 240 150 390l10 50c30-30 30-50 30-80v-40c10 40 30 80 20 130 0 40-30 70-60 100l-160 140c-60 50-100 110-180 140l60-90h-10l100-90c30-50 70-90 90-150h-20c20-70 30-130 10-200-20-130-90-220-150-330l-140-140 10-10c60 60 120 110 160 180 70 90 120 180 150 290v140l-10 90c30-20 60-60 70-100l-20-100c-10-70-30-130-60-190-50-100-120-190-210-270l-210-200c-50-40-90-90-150-120l-200-110c-30-20-70-30-100-60" fill="#404142"/><path d="m640 3510-20 50 20-10-40 120-20 20v-50c10-50 30-90 60-130zm830 40 240 60c90 30 170 40 240 90l120 60-20 10-130-60c-60-40-130-40-200-70s-140-40-220-50-160-10-240 10c-60 10-130 20-180 60-40 30-90 50-120 90-50 40-60 90-80 150-20 50-20 90-20 140l-20-80c0-60 30-130 50-190 40-70 110-110 180-150 60-50 130-50 210-60 60-10 120-20 190-10" fill="#acadad"/><path d="M810 3580c0 40-20 60-50 90l-20-50 70-40" fill="#828282"/><path d="M1500 3590c80 10 150 20 220 50s140 30 200 70l130 60 230 160 110 130 140 160c30 60 70 120 60 190v150l-50 140c-30 50-80 80-120 120-80 50-170 60-260 70-80 0-150 0-230-20-50-10-120-20-170-50-30-10-40-40-70-60-50-30-90-60-140-70s-80-40-120-70l-130-80c-50-30-70-70-110-110l-70-80c-40-50-60-100-80-150s-40-90-30-140l10-120c10-50 30-100 70-130 90-60 180-110 290-120 60-10 110 10 160 10l110 10 140 40 160 80 130 70c60 30 120 90 170 130s70 90 110 140c60 70 100 160 110 250 10 40-10 70-20 100-10 50-30 100-60 140-40 50-90 80-150 100-120 30-240 40-350 10-60-10-120-20-180-50 80 10 160 40 240 40h180c100-10 220-70 270-170l50-100v-60l-20-120-70-110-80-120-110-90c-30-30-60-60-100-70-60-30-110-70-170-90-120-80-280-110-430-110-100-10-190 20-280 60-50 30-100 60-130 110-40 90-40 210 0 300 20 80 70 150 130 210 40 40 70 90 120 120l130 100c40 20 70 60 120 60 0-20-20-30-30-40l-140-90-60-50c-50-20-70-60-100-100s-70-70-90-120c-50-80-60-170-60-270 10-70 50-150 110-190 110-60 230-80 350-80 110 20 220 50 330 100 40 20 80 30 110 60 40 30 90 40 120 80 50 40 110 60 150 110 60 80 120 170 150 270 10 60 10 130-20 190-40 80-120 140-210 170-60 20-120 20-190 20s-130-20-190-30-110-10-150-40l-120-90c-40-20-80-40-110-80-40-30-80-40-110-80-50-70-110-140-130-220s-30-160-20-240c20-50 90-90 140-110 100-60 230-60 350-40 90 10 160 50 240 90 50 10 90 50 130 70 50 20 80 60 120 90l70 50c50 60 90 140 120 210 20 30 30 60 20 90-10 50-10 90-40 130a340 340 0 01-300 150c-80-10-180-10-260-40-120-30-220-110-320-180l-70-60-50-70c-30-40-60-80-70-130-20-70-20-150 0-230 0-20 20-40 40-50 90-60 190-80 290-80 90 0 190 30 280 70l130 80c80 40 160 90 210 170s90 150 90 250c0 40-20 70-40 110-50 60-130 110-210 110l-180-10c-70-20-160-40-230-80l-120-90-110-80c-50-70-100-140-90-240 0-60 10-140 70-170 40-40 110-50 160-60 70-20 130 0 200 20 30 0 60 0 90 20l120 70c50 30 90 50 130 90 50 50 90 120 120 180 20 50 10 120 0 170-20 50-60 80-100 110-50 20-100 20-150 20-60 0-120-20-180-40l-60-50-80-10-160-120c-40-30-60-70-80-110-10-30-30-50-30-80l10-90c30-80 120-140 200-140l130 10-10 10-110 10c-60 10-120 30-150 70l-70 110 70 120 120 80c20 20 40 40 70 40 60 10 110 50 180 50l130 20c20 0 30-20 50-30 20-30 40-70 70-90l-10 40c-20 20-50 40-60 70 40-10 80-70 90-110-10-90-60-140-120-200l-90-60c-70-50-160-70-250-60-40 10-90 20-120 50l-10 40-20 10v-50l80-60c80-20 160-20 240 0 60 20 100 60 150 90 60 30 100 90 140 140 10 40 40 90 20 140-20 30-40 70-90 90-20 0-50 20-80 10l-130-20c20 30 70 40 110 40 60 10 110 0 160-20 20-10 20-40 30-60 10-30 40-70 40-100-10-50-40-90-60-130-30-40-60-80-110-100l-100-70c-60-30-110-30-170-50l20-20c70 10 120 30 180 70 50 40 110 60 150 110l110 160c10 30 0 50-10 80-20 50-20 90-60 130-60 40-110 30-170 30l-100-20-70-50c-50-30-110-40-160-60l-150-100c30 40 70 60 110 90 30 30 60 50 110 60l70 20c30 20 60 60 100 70 80 20 190 30 260-10 80-50 130-140 110-230-10-50-50-90-80-130-40-60-90-110-150-140l-130-70c-60-20-120-40-190-40-80-20-150 0-220 40-40 20-70 70-80 110-20 40-40 80-20 120l80 140 100 100 100 70c50 20 80 60 130 70l150 30c60 10 130 20 200 10 60-20 120-80 170-130 30-30 10-100 10-140 0-50-30-100-60-140-30-50-70-100-120-140-40-40-90-50-130-80s-80-60-130-70c-50-20-100-40-160-40-120-30-250 10-360 70l-40 70v170c10 70 70 130 110 190 20 40 50 50 80 80l140 90c110 80 240 110 380 120 80 10 170 0 230-50l110-100c30-30 40-100 40-140-20-60-40-110-80-160-20-50-50-90-90-120-80-70-170-130-270-190l-80-30c-40-20-80-40-130-40l-140-20c-110-10-230 20-310 90l-60 90v130c0 80 60 160 100 230 30 30 50 80 100 100l100 70c70 50 140 110 220 140 90 30 180 40 270 50h150c80-10 150-60 200-120 30-30 60-60 70-110 0-60 10-120-10-180-30-70-80-140-130-200-30-50-80-70-120-110l-90-60-110-60c-90-30-160-80-250-100-120-30-240-30-350 10-50 20-110 40-150 90l-70 100c-10 70-10 140 20 210 40 110 100 180 180 270l80 60c60 50 130 80 190 140l90 60 80 40c130 40 250 70 380 50 80 0 160-20 230-60 50-20 90-70 110-120l40-100c50-70 20-150-10-230-40-80-90-130-150-200-40-70-100-130-170-170l-270-160c-60-40-130-50-200-70l-290-40c-70 10-150 20-220 50-50 20-100 50-140 90-30 30-40 70-60 100-50 30-30 80-30 120l40 170c30 80 70 160 130 220l80 80 70 70c50 20 90 60 130 90 40 20 80 50 130 60 60 20 120 60 170 100-60-10-110-50-170-80-100-30-180-110-280-170l-90-80-100-120c-50-60-80-130-100-210-30-60-30-130-40-200 10-60 20-120 60-160l160-100c110-40 210-70 320-50l100 10 140 30 180 70c70 40 150 70 210 120 50 30 100 50 140 90l120 120c40 60 90 110 120 170 50 80 70 170 50 260l-40 110c-20 70-80 130-140 160-70 40-160 50-240 50-110 10-220-10-320-40h-50c50 40 140 50 200 60 140 30 290 20 420-40 80-30 140-90 170-170 20-50 50-100 50-150 0-70 0-130-30-200-30-60-80-120-130-170l-90-130-110-90c-90-50-160-110-250-140-70-40-140-70-220-90-80-30-160-50-250-60h-80c-90-10-180 10-270 40-70 30-130 70-190 120l-40 100c-30 80-40 180 0 270 20 80 70 160 120 230l120 140 60 60 90 50 140 100 110 50 110 60c-70-10-110-50-180-70l-60-30c-30-10-60-40-90-70l-150-100c-40-30-70-80-100-120-70-60-120-130-150-210-30-50-70-110-70-160l10-170c20-60 30-110 80-150 30-40 80-60 120-90 60-40 120-50 180-60 80-20 160-20 240-10"/><path d="m650 3610-10 50h20c-20 80-20 150-10 230-20-90-50-190 0-280" fill="#828282"/><path d="m730 3610 10 10 20 50-50 80-20 90-10-120c10-40 20-80 50-110" fill="#acadad"/><path d="M1420 3610h80c90 10 170 30 250 60l-40 10-140-30-100-10c-110-20-210 10-320 50l-160 100c-40 40-50 100-60 160-20-30-20-50-10-80l40-100a660 660 0 01 460-170" fill="#fff"/><path d="M580 3640v50l20-20c0 60-10 110 10 170 10 70 10 150 30 220l40 80 40 20 10 40a4870 4870 0 00 250 360c60 40 100 90 150 140l150 100c60 50 130 70 180 130-80-30-150-80-220-130l-290-240-90-80c-20-40-30-70-60-100-40-40-60-90-110-120l80 160v20l-40-30c-90-110-160-230-200-360a4050 4050 0 00-20-220l30-110 40-80" fill="#404142"/><path d="m1410 3660 290 40-50 10-110-10c-50 0-100-20-160-10-110 10-200 60-290 120-40 30-60 80-70 130-20 40-20 90-30 130v-170c20-30 30-70 60-100 40-40 90-70 140-90 70-30 150-40 220-50" fill="#fff"/><path d="M1750 3670c80 20 150 50 220 90 90 30 160 90 250 140l110 90 90 130c50 50 100 110 130 170 30 70 30 130 30 200 0 50-30 100-50 150-30 80-90 140-170 170-130 60-280 70-420 40-60-10-150-20-200-60h50a840 840 0 00 560-10c60-30 120-90 140-160l40-110c20-90 0-180-50-260-30-60-80-110-120-170l-120-120c-40-40-90-60-140-90-60-50-140-80-210-120l-180-70zm-50 30c70 20 140 30 200 70l270 160c70 40 130 100 170 170 60 70 110 120 150 200 30 80 60 160 10 230l-20-10h-30c10-30 30-60 20-100-10-90-50-180-110-250-40-50-60-100-110-140s-110-100-170-130l-130-70-160-80-140-40 50-10" fill="#acadad"/><path d="M2080 3700c80 10 140 80 210 120l100 110 120 100c100 100 180 230 220 370-20 50-10 110-20 170l-20 130-40 90-30-10a590 590 0 00 40-90c20-40 20-100 30-150l10-170c-10-80-70-150-110-210-20-50-60-80-90-120-50-40-100-80-140-140l-150-120-130-80"/><path d="M1470 3720c150 0 310 30 430 110 60 20 110 60 170 90 40 10 70 40 100 70l110 90 80 120 70 110 20 120v60l-50 100c-50 100-170 160-270 170h-180c-80 0-160-30-240-40 60 30 120 40 180 50 110 30 230 20 350-10 60-20 110-50 150-100 30-40 50-90 60-140h30l20 10-40 100c-20 50-60 100-110 120-70 40-150 60-230 60-130 20-250-10-380-50l-80-40-90-60c-60-60-130-90-190-140l-80-60c-80-90-140-160-180-270-30-70-40-140-20-210l70-100c40-50 90-70 150-90 110-40 230-40 350-10 90 20 160 70 250 100l110 60 90 60c40 40 90 60 120 110 50 60 100 130 130 200 20 60 10 120 10 180-10 50-40 80-70 110-50 60-120 110-200 120h-150c-90-10-180-20-270-50-80-30-150-90-220-140l-100-70c-50-20-70-70-100-100-40-70-100-150-110-230l10-130 50-90c90-70 210-100 320-90l140 20c50 0 90 20 130 40l80 30c100 60 190 120 270 190 40 30 70 70 90 120 40 50 60 100 80 160-10 40-10 110-40 140l-110 100c-60 50-150 60-230 50-140-10-270-40-380-120l-140-90c-30-30-60-40-80-80-40-60-100-120-110-190v-170l40-70c110-60 240-100 360-70 60 0 110 20 160 40 50 10 90 40 130 70s90 40 130 80c50 40 90 90 120 140 30 40 60 90 60 140 0 40 20 110-20 140-40 50-100 110-160 130-70 10-140 0-200-10l-150-30 40-30c60 20 120 40 180 40 50 0 100 0 150-20 40-30 80-60 90-110 20-50 30-120 10-170-30-60-70-130-120-180-40-40-80-60-130-90l-120-70c-30-20-60-20-90-20-70-20-130-40-200-20-50 10-120 20-160 60-60 30-70 110-70 170-10 100 40 170 90 240l110 80 120 90c70 40 150 60 230 80l180 10c80 0 160-50 210-110 20-40 40-70 40-110 0-100-40-170-90-250-50-70-130-130-210-170-50-30-80-60-140-80-80-40-180-70-270-70-100 0-200 20-290 80-20 10-40 30-40 50-20 80-20 160 0 230 10 50 40 90 70 130l50 70 70 60c100 70 200 150 320 180 80 30 180 30 260 40 40 10 70 0 110-10 80-10 150-70 190-140 30-40 30-80 40-130 10-30-10-60-20-90-30-70-70-150-120-210l-70-50c-40-30-70-70-120-90-40-20-80-60-130-70-80-40-150-80-240-90-120-20-250-20-350 40-50 20-120 60-140 110-10 80 0 160 20 240s80 150 130 220c30 40 70 50 110 80 30 40 70 60 110 80l120 90c40 30 90 30 150 40s120 30 190 30 130 0 190-20c90-30 170-90 210-170 30-60 30-130 20-190-30-100-90-190-150-270-40-50-100-70-150-110-30-40-80-50-120-80-30-30-70-40-110-60-110-50-220-80-330-100-120 0-240 20-350 80-60 40-100 120-110 190 0 100 10 190 60 270 20 50 60 80 90 120s50 80 100 100l60 50 140 90c10 10 30 20 30 40-50 0-80-40-120-60l-130-100c-50-30-80-80-120-120-60-60-110-130-130-210-40-90-40-210 0-300 30-50 80-80 130-110 90-40 180-70 280-60" fill="#acadad"/><path d="m680 3720 10 120 20-90v240c10 50 30 80 60 120l-10 50-30-30v10c-50-80-50-160-50-250v-170" fill="#828282"/><path d="m2070 3760 210 130 90 100 100 110c60 50 100 120 130 180s50 120 40 180c0 80-30 150-50 230-30 60-80 110-140 140l-30-10c40-40 90-70 120-120l50-140v-150c10-70-30-130-60-190l-140-160-110-130-230-160zm-1180 10c-20 60-50 130-50 190l20 80c0-50 0-90 20-140l-10 170c0 50 40 110 70 160 30 80 80 150 140 210l110 120 150 100c30 30 60 60 90 70l60 30c70 20 110 60 180 70l-110-60-110-50-140-100-90-50-60-60-120-140c-50-70-100-150-120-230-40-90-30-190 0-270-10 30-10 50 10 80 10 70 10 140 40 200 20 80 50 150 100 210l100 120 90 80c100 60 180 140 280 180 60 20 110 60 170 70-50-40-110-80-170-90l-130-70c-40-30-80-70-130-90l-70-70-80-80c-60-60-100-140-130-220l-40-170c0-40-20-90 30-120v170c10-40 10-90 30-130l-10 120c-10 50 10 90 30 140s40 100 80 150l70 80c40 40 60 80 110 110l130 80c40 30 70 60 120 70s90 40 140 70c30 20 40 50 70 60 50 30 120 40 170 50l-20 20-100-20-130-50c70 70 190 80 280 100l-20 20c-70-10-140-20-210-50-40-30-80-40-120-50l-160-80 50 40 250 120 200 40a1100 1100 0 00 510-20l20 10-100 40c-40 20-90 20-140 20-60 10-110 0-170-10l-220-30c-100-20-180-60-270-100l-110-60-10 30 120 90c80 50 170 80 260 100l270 50 140 10c70 0 130-20 200-30l80-10-60 30c-110 30-210 40-320 30-140-10-270-50-400-70l100 40 170 30c140 20 260 30 400 10 40-10 80 0 110 10l-240 30-250-20c-100-10-210-40-310-80l-120-40-160-80 100 70 190 80 240 60c110 10 210 30 320 30 80-10 150 0 230-20l180-30c-80 40-160 40-250 70l-150 10c-160 30-320-20-460-70l-310-100c-40-10-80-40-110-60l-120-60-220-160-90-60c-100-90-190-190-270-290l40 30v-20l90 60 90 80 290 240c70 50 140 100 220 130-50-60-120-80-180-130l-150-100c-50-50-90-100-150-140l-110-120-120-180c-20-20-20-40-20-60 60 110 150 210 230 310l180 150 160 130 150 100c40 20 60 60 100 70 50 30 110 60 160 70-50-40-110-50-170-90l-100-80c-50-30-100-50-140-90l-160-130c-60-50-120-90-170-150l-130-160-110-190v-10l30 30 10-50 70 90 90 120c60 90 130 170 210 240l310 240c-20-50-70-60-100-100l-130-80-140-140c-80-80-140-160-190-260-40-70-50-160-60-240s20-150 60-210zm-70 40c-10 60-20 120-10 180l10 160c-30-50-50-100-50-160l10-160 10 110c10-50 0-90 30-130zm2250 70 30 70-10 100v160l-10 200c0 30-20 50-30 70l-20-40 30-150c0-80-20-150-30-230 0-40 30-70 40-110v-70" fill="#acadad"/><path d="M1620 3930c70 0 130 20 190 40l130 70c60 30 110 80 150 140 30 40 70 80 80 130 20 90-30 190-110 230-70 40-180 30-260 10-40-10-70-50-100-70l-70-20c-50-10-80-30-110-60-40-30-80-50-110-90l150 100c50 20 110 30 160 60l70 50 100 20c60 0 110 10 170-30 40-40 40-80 60-130 10-30 20-50 10-80l-110-160c-40-50-100-70-150-110-60-40-110-60-180-70l-20 20c60 20 110 20 170 50l100 70c50 20 80 60 110 100 20 40 50 80 60 130 0 30-30 70-40 100-10 20-10 50-30 60-50 20-100 30-160 30-40-10-90-20-110-50l130 20c30 10 60-10 80-10 50-20 70-60 90-90 20-50-10-100-20-140-40-50-80-110-140-140-50-30-90-70-150-90-80-20-160-20-240 0l-80 60c-20 10-50 30-50 50-10 70 30 120 70 160l120 80 180 60 100 10c30 0 50 10 70-10 30-30 70-80 80-120l-30-60-100-110c-60-30-100-70-170-80s-150-10-210 30l-40 80v-50l10-40c30-30 80-40 120-50 90-10 180 10 250 60l90 60c60 60 110 110 120 200-10 40-50 100-90 110 10-30 40-50 60-70l10-40c-30 20-50 60-70 90-20 10-30 30-50 30l-130-20c-70 0-120-40-180-50-30 0-50-20-70-40l-120-80-70-120 70-100c30-50 90-70 150-80l110-10 10-10-130-10c-80 0-170 60-200 140l-30 40v-50c10-40 40-90 80-110 70-40 140-60 220-40" fill="#fff"/><path d="m3100 3950 30 70c20 180-10 360-60 540l-20-20-60-170 40 70 20 40c10-20 30-40 30-70l10-200v-160l10-100" fill="#828282"/><path d="M2520 3980c40 20 70 70 100 100 70 100 150 220 180 340 10 80 10 170-20 240-30 50-60 100-110 130 20-30 50-60 60-100l20-90v-60 90l10 40 30-50a720 720 0 00-170-530c-40-40-80-70-110-120"/><path d="m3130 4020 40 80v70l-10 140c-10 70-40 130-40 200-10 60-10 130-60 180l-10-150a870 870 0 00 20 20c50-180 80-360 60-540" fill="#404142"/><path d="M1710 4060c70 10 110 50 170 80l100 110 30 60c-10 40-50 90-80 120-20 20-40 10-70 10l-100-10-180-60-120-80c-40-40-80-90-60-160 20 50 20 90 50 130s70 50 110 80l50 20c-20-40-60-60-100-90-30-20-40-60-50-100l40-80c60-40 140-40 210-30"/><path d="M1320 4080v50l30-40-10 90c0 30 20 50 30 80 20 40 40 80 80 110l160 120 80 10 60 50-40 30c-50-10-80-50-130-70l-100-70-100-100-80-140c-20-40 0-80 20-120zm120 0v50l20-10v50c10 40 20 80 50 100 40 30 80 50 100 90l-50-20c-40-30-80-40-110-80s-30-80-60-130c0-20 30-40 50-50" fill="#acadad"/><path d="M1680 4080c60 10 110 40 160 70l-20 10c-70-30-140-50-210-30-30 0-60 20-80 30a600 600 0 01-20-20c10-10 20-40 50-40l120-20" fill="#fff"/><path d="M1820 4160h-20l-50 10-70-40h-70c70-20 140 0 210 30" fill="#828282"/><path d="M2820 4110c70 110 130 220 170 340v40l-40 30c-20-150-80-260-150-390" fill="#acadad"/><path d="M1610 4130h70l70 40c30 20 70 40 80 90 20 30 0 50-10 80-100 0-190-60-240-130l10-30c30 0 50 0 70 20 50 30 110 50 160 90 0-40-30-70-60-80l-120-60c-30-10-50 20-60 30l-30 10-20-30c20-10 50-30 80-30"/><path d="m1510 4140 20 20 20 30 30-10h10l-10 30c50 70 140 130 240 130 10-30 30-50 10-80-10-50-50-70-80-90l50-10c30 30 60 60 60 100 10 30-10 60-30 90 20-10 50 0 50-30 20-30 0-60-10-90l-50-70 20-10 80 40 50 90-20 30-60-100c10 30 30 70 20 110-10 30-40 60-70 60l-120-30-130-80c-20-30-50-40-80-60v-70" fill="#acadad"/><path d="m1640 4150 120 60c30 10 60 30 60 80-50-40-110-60-160-90-20-20-40-20-70-20h-10c10-10 30-30 60-30" fill="#fff"/><path d="m1820 4160 50 70c10 30 30 60 10 90 0 30-30 20-50 30 20-30 40-60 30-90 0-40-30-70-60-100h20zm-1030 30 70 80c80 130 190 250 310 350l160 120 80 70c-70-20-110-70-170-110l-130-120-130-110-120-150c-20-50-60-80-70-130"/><path d="m1490 4210 100 70c30 30 60 70 100 80l140 40c20 0 40 10 50-10 40-20 50-50 70-80l20-30 20 20-80 110-50 20-200-60c-30-10-60-50-80-80l-90-80" fill="#fff"/><path d="M3320 4210c30 120 20 260-30 370-60 100-150 160-240 230-60 50-100 120-150 180l-190 140-180 30c-80 20-150 10-230 10-110 10-210-10-320-20l-240-60-190-80-100-70 160 80 120 40c100 40 210 70 310 80l250 20 240-30c50-10 100-10 130-40h-80c60-20 120-40 180-80 110-70 200-160 290-260 50-50 120-60 170-110s60-120 80-180c30-90 20-160 20-250" fill="#404142"/><path d="m1620 4220 90 40 50 40c-50 0-120-30-140-80" fill="#acadad"/><path d="M690 4260c50 30 70 80 110 120 30 30 40 60 60 100l-90-60-80-160" fill="#828282"/><path d="m2610 4260 40 90 10 120c0 80-10 160-50 230l-20-10c20-80 50-150 50-230 10-60-10-120-40-180" fill="#404142"/><path d="M2730 4400v70l-10 160 30-30-20 90c-10 40-40 70-60 100 50-30 80-80 110-130 30-70 30-160 20-240 20 60 20 110 20 170 20-50 20-110 20-160 20 70 10 130-10 200-40 80-110 160-180 210l-170 110-20-10 120-80 70-70 40-90 20-130c10-60 0-120 20-170" fill="#acadad"/><path d="m2870 4420 20 120 20 10v-100l20 100c-10 40-40 80-70 100l10-90v-140zm-90 20 10 180c0 20-20 40-30 50l-10-40v-90c0-40 10-70 30-100" fill="#828282"/><path d="m800 4470 110 80c90 60 160 150 250 210l100 80 160 100-120-60c-80-40-150-110-240-160l-100-100c-60-40-120-90-160-150"/><path d="M2990 4490c0 30 0 50-30 80l-10-50 40-30" fill="#828282"/><path d="m1660 4520 50 30c-20-10-40-10-50-30" fill="#404142"/><path d="M2610 4700c-50 110-150 170-260 220-100 10-200 30-290 10l-100-10c-90-20-210-30-280-100l130 50 100 20 140 20c70 10 140 0 210-10a500 500 0 00 330-210zm-1160 60 160 80c40 10 80 20 120 50 70 30 140 40 210 50 70 20 140 20 220 20s150 0 230-30 170-80 230-150l30 10-70 70-120 80a1220 1220 0 01-510 20l-200-40a3470 3470 0 01-300-160"/><path d="m2420 4820 30 10c-60 40-130 60-190 70-70 10-140 20-210 10l-140-20 20-20c80 20 150 20 230 20 90-10 180-20 260-70" fill="#fff"/><path d="m1480 4830 100 60c100 40 200 90 310 100a1100 1100 0 00 540 10 1320 1320 0 01 40 10l-60 30-180 30c-140-10-280-30-420-70-90-20-170-60-250-90-30-20-60-40-80-80" fill="#acadad"/><path d="M2660 4870h10l-60 90c-70 30-130 70-200 80l60-30a1320 1320 0 00-40 0l70-30 160-110" fill="#828282"/><path d="m2350 4920 40 10c-80 30-150 30-230 30s-150 0-220-20l20-20 100 10c90 20 190 0 290-10" fill="#acadad"/><path d="M2670 4980c-50 60-120 90-200 100l60-30-80 10 220-80zm-10 110c-30 30-80 30-130 40-30-10-70-20-110-10l160-30h80" fill="#828282"/><path d="m2020 5180 210 20c-80 10-140 0-210-20"/></svg>
