<svg xmlns="http://www.w3.org/2000/svg" viewBox="0 0 1416 627" width="1888" height="836" xmlns:v="https://vecta.io/nano"><style><![CDATA[.I{fill:#acadad}.J{fill:#828282}.K{fill:#404142}.L{fill:#fff}]]></style><path d="M296.99 72.33c9.71-.44 19.33.11 29.03.21 14.92.87 28.17 7.45 39.48 16.94 6.93 5.93 14.66 11.48 20.86 18.17 9.81 11.49 17.46 27 17.25 42.37.28 4.05 1.18 7.88.64 11.98-.8 4.66-.44 8.78-2.36 13.13-2.72 6.36-6.97 12.22-10.65 18.06-9.31 14.65-20.1 28.73-30.18 42.86-12.63 18.62-26.22 36.54-38.87 55.15-3.62 4.49-6.63 9.41-10.25 13.88-5.83-7.29-10.2-15.42-17.02-22-11.68-11.1-25.09-19.28-39.3-26.7-9.63-4.26-19.92-7.26-30.32-8.9l-4.06-.8c-7.08-1.61-14.15-.39-21.35-1.39 2.64-4.52 4.38-9.22 6.26-14.09 3.13-8.39 6.86-16.54 9.98-24.94l29.03-80.27c4.86-13 10.18-26.9 19.16-37.67 8.01-9.41 20.24-15.74 32.67-15.99z"/><path d="M313.46 76.69c6.28-1.27 13.39.22 19.6 1.48 6.29 1.22 11 4.57 16.77 7.07 2.91 1.3 5.62 2.84 8.14 4.8-5.48-2.19-10.86-4.64-16.41-6.65-5.4-2.01-10.85-2.21-16.4-3.59-3.27-.74-7.19-1.93-10.52-1.12-3.8 4.04-4.77 10.96-7.05 15.99-1.56 3.93-4.69 6.67-6.28 10.57-1.44 3.54-2.68 7.12-4.62 10.44-2.59 4.41-2.89 8.92-3.9 13.82l-1.52-2.06c-.68 3.24-.63 7.91-3.42 10.13-2.56 2-2.44 4.83-3.67 7.75-1.86 4.71-4.39 9.11-6.18 13.86-3.33 8.71-8.38 16.54-11.83 25.2-5.07 10.62-9.78 21.23-15.71 31.37-1.79 3.21-3.92 6.39-4.06 10.18-.07 2.8-.28 6.16.92 8.74 5.87 8.61 14.31 11.83 21.18 18.9 2.95 2.81 6.49 3.25 9.92 5.16 1.53 1.04 2.67 2.75 3.89 4.13 2.66 3.25 6.26 5.56 9.27 8.59 3.42 3.18 6.43 6.93 10.13 9.78 1.21.83 2.95 1.94 4.35.85 3.82-2.85 7.77-6.16 10.37-10.21 3.95-5.58 7.55-11.37 10.66-17.46 1.8-3.53 3.32-7.6 5.7-10.76 1.72-2.37 4.56-2.85 6.13-5.41 3.13-4.91 7.19-9 10.59-13.69 4.65-6.38 9.83-12.16 13.86-19 4.64-8.15 11.07-15.01 15.9-23.09 1.16-2.47 1.39-5.28 2.54-7.79l.11 3.29c2.49-2.95 3.73-6.38 5.18-9.88 1.01-2.74 4.1-3.69 5.38-6.45 2.11-4.27 3.23-9.07 4.67-13.59 1.04-3.39 1.33-6.49.67-9.99 1.58 6.31 1.47 12.84.3 19.21-.97 4.97-4.34 8.77-6.95 12.99-7.46 12.02-15.32 23.82-23.78 35.17-4.15 5.54-7.8 11.4-12.2 16.77-6.8 8.35-12.65 17.33-19.08 25.95-5 6.79-9.5 13.88-14.02 20.98-4.22 6.71-9.36 12.64-14.63 18.52-2.01-.7-3.47-1.58-5.01-3.06-4.97-4.68-9.71-9.66-14.83-14.19-4.38-3.84-9.93-5.82-14.76-9.3-6.51-4.59-12.63-9.58-19.7-13.35-5.81-2.97-7.83-9.15-9.88-14.92-2.07-6.71-.21-12.91 2.65-19.03 3.54-7.23 6.33-14.76 10.07-21.89 9.17-18.76 16.64-38.21 26.23-56.78L304.2 87.1c2.04-3.73 5.02-8.98 9.26-10.41z" class="K"/><path d="M314.64 78.68c3.33-.81 7.25.38 10.52 1.12 5.55 1.38 11 1.58 16.4 3.59 5.55 2.01 10.93 4.46 16.41 6.65 3.83 2.82 7.26 6.11 11.23 8.75 3.19 2.14 6.13 4.44 8.86 7.15-6.69-3.53-12.1-8.89-18.76-12.39-9.78-4.63-20.02-8.26-30.59-10.6-2.34-.43-5.25-.96-7.52-.09-2.08 1.72-3.41 4.56-4.63 6.92-4.5 9.49-9.52 18.69-13.64 28.36-5.35 10.51-9.74 21.44-14.85 32.06-5.01 11.47-10.95 22.38-16.38 33.64-5.86 13.21-12.6 26.03-19.12 38.93-1.23 2.74-3.03 5.94-1.6 8.94 2.41 5.59 7.88 9.4 12.8 12.64 11.43 7.43 22.76 14.94 33.29 23.64 2.51 2.14 5.12 3.93 7.99 5.54 2.63-1.33 4.39-3.13 6.04-5.53 5.75-8.28 11.03-16.87 16.92-25.06 5.05-7.02 9.53-14.41 14.58-21.42 16.23-22.9 31.65-46.2 45.5-70.62 2.32-4.31 5.42-8.53 6.93-13.2.75-3.45-.3-7.4-.81-10.84 1.75 3.55 2.78 7.33 3.61 11.19.66 3.5.37 6.6-.67 9.99-1.44 4.52-2.56 9.32-4.67 13.59-1.28 2.76-4.37 3.71-5.38 6.45-1.45 3.5-2.69 6.93-5.18 9.88l-.11-3.29c-1.15 2.51-1.38 5.32-2.54 7.79-4.83 8.08-11.26 14.94-15.9 23.09-4.03 6.84-9.21 12.62-13.86 19-3.4 4.69-7.46 8.78-10.59 13.69-1.57 2.56-4.41 3.04-6.13 5.41-2.38 3.16-3.9 7.23-5.7 10.76-3.11 6.09-6.71 11.88-10.66 17.46-2.6 4.05-6.55 7.36-10.37 10.21-1.4 1.09-3.14-.02-4.35-.85-3.7-2.85-6.71-6.6-10.13-9.78-3.01-3.03-6.61-5.34-9.27-8.59-1.22-1.38-2.36-3.09-3.89-4.13-3.43-1.91-6.97-2.35-9.92-5.16-6.87-7.07-15.31-10.29-21.18-18.9-1.2-2.58-.99-5.94-.92-8.74.14-3.79 2.27-6.97 4.06-10.18 5.93-10.14 10.64-20.75 15.71-31.37 3.45-8.66 8.5-16.49 11.83-25.2 1.79-4.75 4.32-9.15 6.18-13.86 1.23-2.92 1.11-5.75 3.67-7.75 2.79-2.22 2.74-6.89 3.42-10.13l1.52 2.06c1.01-4.9 1.31-9.41 3.9-13.82 1.94-3.32 3.18-6.9 4.62-10.44 1.59-3.9 4.72-6.64 6.28-10.57 2.28-5.03 3.25-11.95 7.05-15.99z" class="I"/><path d="M321.19 82.86c2.27-.87 5.18-.34 7.52.09 10.57 2.34 20.81 5.97 30.59 10.6 6.66 3.5 12.07 8.86 18.76 12.39 6.41 5.62 12.23 13.37 16.15 20.92.51 3.44 1.56 7.39.81 10.84-1.51 4.67-4.61 8.89-6.93 13.2-13.85 24.42-29.27 47.72-45.5 70.62-5.05 7.01-9.53 14.4-14.58 21.42-5.89 8.19-11.17 16.78-16.92 25.06-1.65 2.4-3.41 4.2-6.04 5.53-2.87-1.61-5.48-3.4-7.99-5.54-10.53-8.7-21.86-16.21-33.29-23.64-4.92-3.24-10.39-7.05-12.8-12.64-1.43-3 .37-6.2 1.6-8.94 6.52-12.9 13.26-25.72 19.12-38.93 5.43-11.26 11.37-22.17 16.38-33.64 5.11-10.62 9.5-21.55 14.85-32.06 4.12-9.67 9.14-18.87 13.64-28.36 1.22-2.36 2.55-5.2 4.63-6.92z" class="L"/><path d="M572.3 159.48l.12 58.1 56.76.12v25.36c-18.93.2-37.86-.07-56.79.13l-.02 138.85c-.06 5.11.6 10.14 2.77 14.81 3.91 8.82 11.82 15.54 21.15 17.99 4.97 1.35 9.63 1.01 14.71 1.04l18.18.06.01 25.48c-8.39.17-16.8.05-25.19.08-14.37-.05-28.57-5.62-39.14-15.34-9.11-8.44-15.73-19.8-18.23-31.99-1.61-7.75-1.05-15.22-1.15-23.17l-.09-127.86c-13.37-.12-26.76.16-40.13-.13l-.01-25.28c13.32-.23 26.66-.06 39.98-.08.51-4.83.17-9.78.25-14.65l.09-39.22zm189.74 53.76c13.78-.25 27.37 4.18 38.59 12.13 17.17 12.09 27.81 32.6 27.63 53.63l-.05 162.43c-3.02.12-6.03.13-9.04-.06-4.94-7.31-9.61-14.82-14.79-21.97-11.75 14.77-28.69 24.97-47.73 26.27-8.83.37-18.35.63-26.98-1.43-14.39-3.33-27.57-11.59-36.73-23.19-9.22-11.64-14.36-26.18-14.27-41.05-.32-12.16 2.54-24.16 8.62-34.71 9.18-16.39 25.64-28.24 44.04-31.94 8.17-1.7 16.37-1.3 24.67-1.35l45.31-.03.06-33.97c.07-7.09-1.68-13.97-5.27-20.09-6.14-10.76-17.69-18.16-30.05-19.17-6.33-.42-12.71-.23-19.06-.2-6.57.02-13 1.5-18.78 4.67-11.1 5.86-18.89 17.36-20.2 29.85-.4 4.13-.2 8.33-.3 12.48l-26.84-4.4c-.36-12.41 2.66-24.61 8.95-35.31 9.35-16.27 25.93-27.96 44.35-31.47 8.93-1.8 18.68-.89 27.87-1.12zm229.58 7.14c11.75 6.04 21.07 15.45 27.58 26.9 4.01-6.55 8.54-12.64 14.41-17.65 12.39-10.93 28.89-16.83 45.39-16.41 16.66-.31 33.11 6.18 45.31 17.47 13.33 12.29 21.22 30.15 21.08 48.31l-.06 162.43c-8.84.18-17.69 0-26.53.1-.54-3.91-.26-7.58-.3-11.53l-.02-153.01c-.01-15.08-9.45-29.25-23.3-35.18-9.36-4.31-19.11-3.21-29.2-3.26-14.17-.02-27.98 8.36-34.5 20.93-2.86 5.38-4.33 11.39-4.39 17.48l-.05 164.46c-8.86-.03-17.88.47-26.69-.25l.05-163.17c.04-6.57-1.42-13.04-4.57-18.83-4.91-9.29-13.88-16.2-23.91-19.15-5.62-1.64-11.13-1.51-16.92-1.54-4.87.02-10.09-.1-14.87.84-10.84 2.18-20.57 9.14-26.01 18.8-3.51 6.05-5.22 12.87-5.15 19.86l-.01 163.45c-8.93.12-17.94.13-26.87-.01l.01-223.73a155 155 0 0 1 8.89-.03c5.09 7.36 9.61 15.11 14.69 22.49 10.61-13.81 25.84-23.66 43.21-26.2 14.66-1.87 29.49-.53 42.73 6.43zm282.35-7.12c6.3.01 12.93-.3 19.12.69 11.12 1.66 21.79 6.41 30.63 13.33 15.4 12.04 24.92 31.11 25.05 50.68l.02 102.09c.11 15.42-5.5 30.57-15.38 42.37-10.99 13.16-27.36 21.78-44.47 23.21-7.11.39-14.39.5-21.48-.28-16.18-1.92-30.67-10.28-41.35-22.44l-.08 108.28c-8.92.09-17.88.14-26.8-.03l-.01-313.45c2.95-.11 5.89-.12 8.84-.08 5.17 7.33 9.65 15.14 14.75 22.52 2.97-3.5 5.81-7.01 9.28-10.04 11.49-10.31 26.39-16.57 41.88-16.85z"/><path d="M1270 238.49c9.6.2 18.54-.94 27.62 2.91 14.34 5.69 24.24 20.11 24.26 35.56v105.08c.01 15.75-10.22 30.38-24.93 35.92-7.61 3.11-14.95 2.53-22.95 2.54-8.27.01-15.86.56-23.67-2.83-14.34-5.73-24.22-20.16-24.21-35.63V276.96c.02-14.9 9.26-28.96 22.89-34.97 6.68-3.18 13.7-3.61 20.99-3.5z" class="L"/><path d="M199.89 245.29c7.2 1 14.27-.22 21.35 1.39-5.08-.3-10.19-.49-15.28-.4-4.2.05-7.94 1.33-12.04 1.93-2.87.42-5.61.17-8.47.04 4.77-.94 9.57-2.71 14.44-2.96z"/><path d="M205.96 246.28c5.09-.09 10.2.1 15.28.4 1.36.24 2.7.54 4.06.8-7.92.47-16.56-1.2-23.49 3.42 5.14.92 10.35.61 15.49 1.6-4.14 1.29-8 .79-12.3.87-6 .08-12.3-.47-18.21.44-5.82 1.37-11.86 3.88-16.86 7.17-2.38 1.55-4.69 3.22-6.98 4.9l-3.04 1.11c3.22-4.02 6.47-8.27 10.37-11.68 4.33-3.52 9.74-5.83 15.17-7.06 2.86.13 5.6.38 8.47-.04 4.1-.6 7.84-1.88 12.04-1.93z" class="I"/><path d="M186.79 253.81c5.94-.84 12.2-.3 18.21-.39 4.99.08 10.09-.31 15.05.28 10.56 1.79 20.9 4.52 30.54 9.27-2.1.05-4.09.2-6.15-.39-9.36-2.81-19.57-6.55-29.42-6.39-7.76 0-15.16-.17-22.11 3.82-5.14 2.91-7.66 9.29-8.82 14.8 2.71 1.1 4.72 1.26 7.61.68 5.51-1.13 10.93-2.48 16.57-2.9l8.61-.15c4.53.66 9.16 1.23 13.61 2.3 17.42 4.72 32.38 14.41 45.4 26.71 2.09 2.2 4.01 4.57 5.86 6.98 3.77 4.68 5.93 10.24 10.7 13.54 2.18-5.12 5.22-11.53 3.54-17.16-1.73-6.76-6.11-11.17-10.92-15.89-2.14-2.23-4.45-4.27-6.85-6.22-2.42-2.07-4.94-4.01-7.62-5.72.41-.84.84-1.68 1.28-2.51 11.83 8.2 22.44 17.93 31.08 29.47 3.74 6.24 7.55 12.25 9.79 19.24 1.77 5.85 3.05 11.69 2.5 17.84-.64 7.9-3.64 14.57-5.19 22.48-4.53-6.33-10.06-11.99-15.02-18-3-3.29-5.71-6.81-8.57-10.23.88-3.33 2.22-6.74 2.5-10.19-.39-2.59-2.25-5.07-3.56-7.3-2.11-3.52-4.45-6.87-7.18-9.93-7.56-9.4-17.64-16.98-28.09-22.9-9.8-5.73-20.62-8.48-31.84-9.67-3.41-.72-6.83-1.05-10.31-.66-7.23.98-14.04 2.07-20.29 6.09l-1.6.53c-3.58.39-7.31-.24-10.91-.6-7.25-1.45-14.71-2.87-22.11-3.02l-2.32.14 3.27-2.63c2.75-.19 5.62-.21 8.32-.81 1.48-2 1.05-5.34 2.41-7.55 1.41-2.15 3.3-4.03 5.17-5.79 5-3.29 11.04-5.8 16.86-7.17z"/><path d="M215.02 256.19c9.85-.16 20.06 3.58 29.42 6.39 2.06.59 4.05.44 6.15.39 4.78 1.93 8.93 4.56 13.45 6.97 2.69 1.46 5.32 2.78 7.84 4.53-.44.83-.87 1.67-1.28 2.51-4.73-2.77-9.54-5.31-13.91-8.65-3.09-2.43-6.64-3.04-10.4-3.7-9.98-4.1-22.33-7.95-33.16-5.92-7.68 1.37-12.65 6.9-16.27 13.43 3.8.35 7.6.51 11.41.45-5.64.42-11.06 1.77-16.57 2.9-2.89.58-4.9.42-7.61-.68 1.16-5.51 3.68-11.89 8.82-14.8 6.95-3.99 14.35-3.82 22.11-3.82z" class="K"/><path d="M246.29 264.63c-4.56.24-8.96-.26-13.47-.86-7.28-.91-14.43 3.28-20.45 6.88l4.51 1.79c-2.87-.02-5.74.06-8.61.15-3.81.06-7.61-.1-11.41-.45 3.62-6.53 8.59-12.06 16.27-13.43 10.83-2.03 23.18 1.82 33.16 5.92z" class="J"/><path d="M169.93 260.98c-1.87 1.76-3.76 3.64-5.17 5.79-1.36 2.21-.93 5.55-2.41 7.55-2.7.6-5.57.62-8.32.81 3.53-2.57 6.3-5.78 8.92-9.25 2.29-1.68 4.6-3.35 6.98-4.9z" class="K"/><path d="M232.82 263.77c4.51.6 8.91 1.1 13.47.86 3.76.66 7.31 1.27 10.4 3.7 4.37 3.34 9.18 5.88 13.91 8.65 2.68 1.71 5.2 3.65 7.62 5.72 2.05 4.21 4.93 9.87 3.92 14.64-.29 2.65-4.28 3.11-6.25 4.11-13.02-12.3-27.98-21.99-45.4-26.71-4.45-1.07-9.08-1.64-13.61-2.3-1.51-.55-3.01-1.17-4.51-1.79 6.02-3.6 13.17-7.79 20.45-6.88z" class="I"/><path d="M162.95 265.88c-2.62 3.47-5.39 6.68-8.92 9.25l-3.27 2.63c-6.97.74-13.92.31-20.91.72-5.3.19-10.54.89-15.82 1.31 4.8-1.53 9.85-3.16 14.91-3.3 6.37-.13 12.71-.64 19.07-.99 5.14.07 8.68-5.16 11.9-8.51z" class="J"/><path d="M207.99 274.62c3.48-.39 6.9-.06 10.31.66-3.53.3-7 .92-10.35 2.07 6.34 2.95 13.19 3.74 19.7 6.05 1.95.63 2.65 1.66 3.54 3.42-6.95-.24-13.83-2.38-20.72-3.49-8.17-1.3-14.36-5.03-22.77-2.62 6.25-4.02 13.06-5.11 20.29-6.09z" class="I"/><path d="M218.3 275.28c11.22 1.19 22.04 3.94 31.84 9.67 10.45 5.92 20.53 13.5 28.09 22.9 2.1 7.35.98 14.5 2.94 21.85.46 2.08 2.21 3 3.73 4.3l1.57 1.27c2.86 3.42 5.57 6.94 8.57 10.23-2.49 1.25-4.02-.22-6.28-1.23l-23.69-20.05c-.46-1.79-.73-3.98-1.81-5.51-1.13-.99-2.58-1.71-3.91-2.41-7.02-4.67-13.88-9.38-21.53-13.03-1.25-.64-2.58-.87-3.96-1.07l-.87-.13c-.36 1.43-.58 2.88-.69 4.34 6.55 4.42 13.37 8.34 20.25 12.23l-.03 2.3a84.94 84.94 0 0 1-8.52-2.96c-7.68-3.16-15.72-5.11-23.25-8.71-8.72-5.44-18.82-9-28.45-12.47-3.29-1.72-6.6-2.95-10.17-3.96-4.51-1.26-8.54-3.46-13.08-3.43-4.72-.07-9.45.02-14.17.05a113.13 113.13 0 0 0 3.98 1.18c-10.21-1-20.66.16-30.92.16-3.31.03-6.63-.1-9.94-.25 2.79-2.51 5.65-4.26 9.46-4.72 7.8-1.02 15.79-2.58 23.64-2.53l1.73.19c7.78.72 14.67 5.88 22.18 4.86 1.75-.16 3.49-.42 5.24-.62 6.15 1.51 12.16 3.56 18.29 5.13 7.3 3.27 14.46 6.99 21.96 9.79 1.66.67 3.38.94 5.15 1.16.38-1.81 1.25-2.64-.24-4.21-2-.38-4.02-.04-5.98-.27-3.24-1.02-6.29-2.78-9.39-4.18-10.62-5.17-22.52-7.99-33.93-10.88a132.94 132.94 0 0 1-3.08-2.21c4.29-.13 8.88.15 13.07-.82l1.6-.53c8.41-2.41 14.6 1.32 22.77 2.62 6.89 1.11 13.77 3.25 20.72 3.49-.89-1.76-1.59-2.79-3.54-3.42-6.51-2.31-13.36-3.1-19.7-6.05 3.35-1.15 6.82-1.77 10.35-2.07z" class="L"/><path d="M153.08 277.62c7.4.15 14.86 1.57 22.11 3.02-4.07-.29-7.88-.64-11.78.85-3.45 1.28-6.85 2.13-10.58 2l-1.73-.19c-1.13-.8-2.23-1.66-3.33-2.51 1.89-.04 3.77-.14 5.65-.22z" class="J"/><path d="M175.19 280.64c3.6.36 7.33.99 10.91.6-4.19.97-8.78.69-13.07.82l3.08 2.21c-3.84-.45-7.46-1-11.23.19 5.06 1.43 10.31 1.83 15.37 3.27l-5.24.62c-7.51 1.02-14.4-4.14-22.18-4.86 3.73.13 7.13-.72 10.58-2 3.9-1.49 7.71-1.14 11.78-.85zm-46.85.52a151.82 151.82 0 0 1 19.43-.37l3.33 2.51c-7.85-.05-15.84 1.51-23.64 2.53-3.81.46-6.67 2.21-9.46 4.72 3.31.15 6.63.28 9.94.25l.12 1.38c-10.19.7-19.67 3.79-28.95 7.91 5.27-3.94 1.65-10.01 6.81-14.23 6.09-4.2 15.31-4.35 22.42-4.7z" class="I"/><path d="M176.11 284.27c11.41 2.89 23.31 5.71 33.93 10.88-3.8-1.49-7.4-2.29-11.5-2.29-6.13-1.57-12.14-3.62-18.29-5.13-5.06-1.44-10.31-1.84-15.37-3.27 3.77-1.19 7.39-.64 11.23-.19z" class="K"/><path d="M278.22 282.7c2.4 1.95 4.71 3.99 6.85 6.22 1.73 2.71 3.43 5.5 4.68 8.47 1.74 3.66.45 8.51-2.13 11.44-1.79.59-4.04-.17-5.87-.4-1.85-2.41-3.77-4.78-5.86-6.98 1.97-1 5.96-1.46 6.25-4.11 1.01-4.77-1.87-10.43-3.92-14.64z" class="J"/><path d="M100.25 288.06a43.28 43.28 0 0 1-3.24 4.94c-3.27 4.26-5.32 9.19-8.39 13.61-2.69 3.85-4.84 7.86-6.77 12.12l-1.79 1.99c-3.55.35-4.97 1.45-7.25 4-5.13 4.56-6.72 10.46-9.79 16.29-3.32 4.24-6.33 8.7-9.59 12.98.01-5.44-.35-11.15 1.1-16.35 4.41-18.13 16.04-35.4 32.72-44.3 4.32-2.31 7.97-4.97 13-5.28z"/><path d="M154.88 289.46l14.17-.05c4.54-.03 8.57 2.17 13.08 3.43 3.57 1.01 6.88 2.24 10.17 3.96-6.6-.61-12.76-2.66-19.25-3.82-7.95-1.51-15.98-1.79-24.05-1.55-6.97.22-13.98.19-20.94.75l-.12-1.38c10.26 0 20.71-1.16 30.92-.16a113.13 113.13 0 0 1-3.98-1.18z" class="J"/><path d="M285.07 288.92c4.81 4.72 9.19 9.13 10.92 15.89 1.68 5.63-1.36 12.04-3.54 17.16-4.77-3.3-6.93-8.86-10.7-13.54 1.83.23 4.08.99 5.87.4 2.58-2.93 3.87-7.78 2.13-11.44-1.25-2.97-2.95-5.76-4.68-8.47z" class="K"/><path d="M128.06 292.18c6.96-.56 13.97-.53 20.94-.75 8.07-.24 16.1.04 24.05 1.55 6.49 1.16 12.65 3.21 19.25 3.82 9.63 3.47 19.73 7.03 28.45 12.47 2.91 2.49 5.39 3.85 9.09 4.9 6.45 1.82 12.05 5.12 18.05 7.99 4.31 3.3 8.36 6.94 12.67 10.27 4.81 3.91 9.88 7.37 14.48 11.54 3.57 3.27 7.58 5.71 10.74 9.23 3.62 4.08 7.29 8.1 10.59 12.45 2.64 3.21 5.27 6.79 9.57 7.67.46-2.59.76-5.19 1.11-7.8 2.5 3.28 5.18 6.4 7.52 9.81a133.54 133.54 0 0 1 9.94 19.14c1.86 4.27.44 8.44 2.5 12.51 2.24 4.41 3.72 9.28 4.75 14.11.25 8.55 1.58 16.11-1.26 24.44-2.24 6.32-3.41 13.73-8.65 18.28-4.99 4.84-11.83 6.57-16.62 11.4-9.09 9.58-18.21 18.52-29.38 25.67-5.58 3.76-11.68 6.11-18.03 8.18l-16.04 2.62c-13.31 2.48-26.03 1.2-39.34-.27-5.81-1-11.52-2.55-17.3-3.73-3.57-.72-7.04-1.79-10.27-3.48 13.42 2.15 26.17 5.73 39.81 6.42 11.02 1.46 21.73.09 32.48-2.37 7.37-1.35 14.85-4.1 19.96-9.83-7.43 2.61-14.48 5.89-22.23 7.59-6.65 1.14-13.26 2.85-19.89 2.71-4.75.13-9.31-.89-14.02-1.12-9.19-.55-17.56-2.84-26.62-4.43-9.3-1.92-18.28-5.5-26.66-9.91-4.2-2.76-8.18-6.2-11.89-9.59l.95-2.34c3.77 1.98 7.62 3.75 11.53 5.44 8.87 4.04 17.02 8.71 26.79 10.31 7.08 1.01 14.46 2.9 21.88 3.35 5.77.23 11.22 1.49 17.04.83 4.69-.59 9.57-.76 14.12-1.95 3.55-.89 7.03-2.5 10.29-4.14 5.8-2.97 11.06-7.56 16.45-11.34 7.61-5.17 14.48-12.4 18.31-20.83l2.09-.45c-1.88 6.04-5.82 10.25-9.66 15.08-2.86 3.47-6.22 6.16-9.67 8.99-5.09 3.83-10.18 8.72-15.93 11.38-2.33 1.11-4.73 2.05-7.16 2.87-8.46 1.61-17.24 2.89-25.86 2.45-9.57-.68-18.97-1.78-28.34-3.87-10.98-1.44-20.51-5.95-30.27-10.87-3.34-1.82-6.32-4.06-9.96-5.33 1.52 3.83 4.46 5.7 8.02 7.36 7.82 3.63 15.97 7.66 24.32 9.79 13.86 3.39 27.99 5.44 42.25 6.11 6.11-.07 12.25-.93 18.2-2.32 7.22-1.43 13.23-4.96 19.78-8.07 7.83-3.01 11.63-9.11 18.32-13.89 5.83-4.2 10.11-9.75 15.36-14.55 2.88-2.74 6.32-5.84 6.73-10.04.23-4.18-1.16-8.57-2.37-12.54-4.32-11.93-10.01-23.34-17.47-33.63-6.02-9.22-13.63-16.9-21.56-24.45-19.2-19.67-42.36-32.92-67.22-44.11-6.07-2.79-12.03-5.61-18.56-7.22-12.24-3.13-24.74-5.37-37.27-7.02-7.41-.34-15.47-.34-22.88.03-9.46 1.53-19.18 2.71-27.87 6.45-8.23 3.57-16.63 8.72-22.37 15.72-3.18 3.79-5.01 8.17-5.93 13.01-1.03 2.86-2.53 5.44-3.9 8.14-1.79 3.5-2.1 7.18-2.75 11.01-.14-5.33-.12-10.65-.05-15.98 1.4-6.26 3.73-11.93 8.19-16.65 6.01-8.11 14.42-13.63 23.71-17.31 8.19-3.5 17.42-5.16 26.2-6.51 6.73 0 13.03-1.59 19.71-.77a73.75 73.75 0 0 0 7.85.66c7.28.29 13.55 2.49 20.9 3.52 11.77 2.31 24.16 5.01 35.04 10.16 11.03 5.04 21.79 10.74 32.42 16.59 7.41 4.42 14.34 9.7 21.39 14.67 5.93 4.1 10.44 9.45 15.8 14.2 7.49 6.87 14.22 14.48 20.38 22.56 6.64 8.56 11.55 18.98 16.36 28.67 1.54 5.92 3.88 11.49 5.93 17.24.99 4.87.64 9.64.69 14.56 5.13-4.26 5.51-11.48 5.82-17.63.11-7.14 3.37-12.97 4.37-19.9.72-4.65.53-9.39 1.08-14.08.15-2.14.6-4.47.2-6.59-1.09-2.95-2.97-5.57-4.2-8.46-.8-2.4-1.66-4.76-2.7-7.06-1.09-2.49-2.41-4.8-3.67-7.2-1.51-3.57-2.9-7.02-5.45-10.01-3.48-4.13-7.49-7.8-11.12-11.8-9.46-9.25-18.78-18.57-29.07-26.92-7.34-6.39-15.63-10.94-23.68-16.3-9.36-6.17-19.54-10.49-30.05-14.25-14.46-6.25-29.51-10.93-45.19-12.82-10.39-1.77-21.52-1.14-32.11-.86-6.5.82-13.15 2.14-19.49 3.81-6 1.6-11.03 4.84-16.74 7.06 1.39-2.47 3-3.99 5.35-5.54 9.28-4.12 18.76-7.21 28.95-7.91zm81.98 2.97c3.1 1.4 6.15 3.16 9.39 4.18 1.96.23 3.98-.11 5.98.27 1.49 1.57.62 2.4.24 4.21-1.77-.22-3.49-.49-5.15-1.16-7.5-2.8-14.66-6.52-21.96-9.79 4.1 0 7.7.8 11.5 2.29z"/><path d="M118.93 301.65c3.09 1.08 5.06 4.83 4.11 8.01-.78 3.57-1.8 7.5-3.92 10.52-2.07 1.2-4.58 1.76-6.89 2.35 3.31-3.34 4.04-6.25 3.91-10.87-1.63-1.51-2.76-3.45-4.36-4.97-3.69-.65-7.96 2.09-10.93 4.09-4 2.56-5.12 7.62-8.74 10.26-4.49 2.52-8.97 3.27-11.91 7.99.89.04 1.78.06 2.67.07-1.99.72-3.97.87-6.05 1.18.94-3.22 1.99-6.44 3.24-9.56l1.79-1.99-.47 6.19c4.33-3.51 8.23-7.45 12.12-11.43 4.65-4.74 10.19-8.51 16.44-10.81 2.8-1.01 6.04-1.67 8.99-1.03zm114.06.42l.87.13c3.59 2.41 7.19 4.76 10.99 6.83 5 2.73 8.87 6.01 14.5 7.27 1.33.7 2.78 1.42 3.91 2.41 1.08 1.53 1.35 3.72 1.81 5.51-8.05-5.1-16.21-10.01-24.43-14.82-2.26-1.25-4.49-3.14-6.98-3.86l-1.36.87c.11-1.46.33-2.91.69-4.34z" class="I"/><path d="M233.86 302.2c1.38.2 2.71.43 3.96 1.07 7.65 3.65 14.51 8.36 21.53 13.03-5.63-1.26-9.5-4.54-14.5-7.27-3.8-2.07-7.4-4.42-10.99-6.83z"/><path d="M302.96 303.94c3.45 3.58 6.27 7.59 8.84 11.83-.39-2.9-.57-5.72-.06-8.62 1.3 1.78 2.49 3.62 3.39 5.63a70.73 70.73 0 0 0-1.94-.56c.8 4.24 1.71 8.45 2.2 12.74l-2.64-1.78c-2.24-6.99-6.05-13-9.79-19.24z" class="I"/><path d="M233.66 305.54c2.49.72 4.72 2.61 6.98 3.86 8.22 4.81 16.38 9.72 24.43 14.82l23.69 20.05 4.86 5.75c-6.06-5.5-12.31-10.78-18.43-16.21-6.64-6.1-14.81-10.32-22.64-15.17-6.88-3.89-13.7-7.81-20.25-12.23z"/><path d="M111.78 306.69c1.6 1.52 2.73 3.46 4.36 4.97.13 4.62-.6 7.53-3.91 10.87-3.38.75-6.8 1.11-10.23 1.54 2.95-1.49 5.91-2.6 9.08-3.53-4.44.03-8.52-.34-12.83 1.01-5.31 1.67-10.45 2.91-15.1 5.82l1.85.62c-.7.39-1.41.75-2.13 1.11l-2.67-.07c2.94-4.72 7.42-5.47 11.91-7.99 3.62-2.64 4.74-7.7 8.74-10.26 2.97-2 7.24-4.74 10.93-4.09z" class="J"/><path d="M278.23 307.85c2.73 3.06 5.07 6.41 7.18 9.93.37 5.41.14 10.83-.51 16.22-1.52-1.3-3.27-2.22-3.73-4.3-1.96-7.35-.84-14.5-2.94-21.85zm-57.48 1.42c7.53 3.6 15.57 5.55 23.25 8.71a84.94 84.94 0 0 0 8.52 2.96l.03-2.3c7.83 4.85 16 9.07 22.64 15.17l18.43 16.21-4.86-5.75c2.26 1.01 3.79 2.48 6.28 1.23 4.96 6.01 10.49 11.67 15.02 18l2.32 3.49 3.01-20.42c.82-5.87-.36-11.41 1.22-16.9.81-2.88 1.51-5.78 1.7-8.78 2.13 6 1.33 11.83.24 17.94-1.72 9.18-2.61 18.46-4.6 27.59-.76 3.13-.39 5.88.62 8.91-2.34-3.41-5.02-6.53-7.52-9.81-1.74-2.45-3.6-4.61-5.78-6.67.91 2.8 1.83 5.6 2.61 8.45-1.82-.14-3.39.03-4.8-1.36-4.15-3.86-7.27-8.8-11.18-12.92-5.76-6.17-11.79-12.17-17.84-18.07-2.34-2.35-4.91-3.75-8.03-4.8-5.34-1.7-8.82-6.12-14.14-7.99-6-2.87-11.6-6.17-18.05-7.99-3.7-1.05-6.18-2.41-9.09-4.9z" class="I"/><path d="M313.19 312.22l1.94.56 3.18 8.11c-.19 3-.89 5.9-1.7 8.78-1.58 5.49-.4 11.03-1.22 16.9l-3.01 20.42-2.32-3.49c1.55-7.91 4.55-14.58 5.19-22.48.55-6.15-.73-11.99-2.5-17.84l2.64 1.78c-.49-4.29-1.4-8.5-2.2-12.74zm-27.78 5.56c1.31 2.23 3.17 4.71 3.56 7.3-.28 3.45-1.62 6.86-2.5 10.19L284.9 334c.65-5.39.88-10.81.51-16.22z" class="K"/><path d="M111.08 320.54c-3.17.93-6.13 2.04-9.08 3.53-5.7 1.51-11.43 1.99-17 3.92l-1.85-.62c4.65-2.91 9.79-4.15 15.1-5.82 4.31-1.35 8.39-.98 12.83-1.01z"/><path d="M80.06 320.72c-1.25 3.12-2.3 6.34-3.24 9.56-2.22 1.24-4.29 2.76-6.36 4.24.72-3.81 3.94-6.51 5.87-10.03l-3.52.23c2.28-2.55 3.7-3.65 7.25-4z" class="K"/><path d="M247.89 322.16c5.32 1.87 8.8 6.29 14.14 7.99 3.12 1.05 5.69 2.45 8.03 4.8 6.05 5.9 12.08 11.9 17.84 18.07 3.91 4.12 7.03 9.06 11.18 12.92 1.41 1.39 2.98 1.22 4.8 1.36-.78-2.85-1.7-5.65-2.61-8.45 2.18 2.06 4.04 4.22 5.78 6.67-.35 2.61-.65 5.21-1.11 7.8-4.3-.88-6.93-4.46-9.57-7.67-3.3-4.35-6.97-8.37-10.59-12.45-3.16-3.52-7.17-5.96-10.74-9.23-4.6-4.17-9.67-7.63-14.48-11.54-4.31-3.33-8.36-6.97-12.67-10.27z" class="J"/><path d="M76.33 324.49c-1.93 3.52-5.15 6.22-5.87 10.03l-7.44 6.49c3.07-5.83 4.66-11.73 9.79-16.29zm37.73 4.21c7.41-.37 15.47-.37 22.88-.03 12.53 1.65 25.03 3.89 37.27 7.02 6.53 1.61 12.49 4.43 18.56 7.22 24.86 11.19 48.02 24.44 67.22 44.11 7.93 7.55 15.54 15.23 21.56 24.45l-1.57 1.75c-11.49-13.85-24.21-26.63-37.96-38.24-3.29-2.8-6.25-5.69-9.85-8.12-8.32-5.36-16.64-10.48-25.83-14.25-2.72-1.2-5.48-2.17-8.43-2.62 3.13 2.84 6.83 3.78 10.53 5.59 6.84 3.25 12.98 7.36 19.64 11.33 5.65 3.35 10.18 7.63 15.14 11.87 7.2 6.47 14.41 12.9 21.14 19.86 8.39 7.96 15.24 17.41 20.27 27.82 3.43 5.78 5.81 11.58 6.81 18.27.23 3.61.11 7.14-.41 10.71-.76-.52-1.34-1.14-1.76-1.86-.97-3.83-1.17-7.8-2.32-11.61-2.8-10.94-8.4-20.01-14.6-29.32-4.38-6.6-10.62-12.02-16.33-17.47-4.78-3.61-8.67-8.08-13.09-12.08-6.09-5.06-11.22-10.8-18.06-14.95-7.82-4.62-15.67-9.18-23.9-13.04-6.83-3.16-13.43-7.07-20.87-8.29-5.23-.91-9.72-3.63-14.92-4.69-8.89-1.99-18.09-4.12-27.17-4.84-10.09-.41-20.01-.13-29.93 1.94-7.93 1.93-15.75 3.79-22.76 8.12-8.04 5.27-15.58 9.57-19.26 19.03l-2.13.01c.24-1.81.47-3.61.79-5.42 3.06-6.43 10.43-11.08 15.98-15.29 8.82-6.51 18.49-8.06 28.94-10.19 4.13-.82 8.08-.69 12.3-1.08 4.05-.35 8.02-.8 12.1-.49 16.09 1.56 31.93 4.68 46.96 10.77-7.26-3.44-14.74-6.87-22.52-8.93-9.33-2.02-18.92-3.05-28.44-3.67-14.6.05-30.12 1.65-43.69 7.34-8.07 3.84-16.49 8.87-22.21 15.86l-2.06.37c.56-1.61 1.11-3.2 1.74-4.79 5.74-7 14.14-12.15 22.37-15.72 8.69-3.74 18.41-4.92 27.87-6.45z" class="I"/><path d="M130.04 332.09c9.52.62 19.11 1.65 28.44 3.67 7.78 2.06 15.26 5.49 22.52 8.93-15.03-6.09-30.87-9.21-46.96-10.77-4.08-.31-8.05.14-12.1.49-4.22.39-8.17.26-12.3 1.08-10.45 2.13-20.12 3.68-28.94 10.19-5.55 4.21-12.92 8.86-15.98 15.29-4.66 9.03-1.82 18.67-.1 28.05-.13-7.85-.87-15.01 1.44-22.64 3.68-9.46 11.22-13.76 19.26-19.03 7.01-4.33 14.83-6.19 22.76-8.12 9.92-2.07 19.84-2.35 29.93-1.94 9.08.72 18.28 2.85 27.17 4.84 5.2 1.06 9.69 3.78 14.92 4.69 7.44 1.22 14.04 5.13 20.87 8.29 8.23 3.86 16.08 8.42 23.9 13.04 6.84 4.15 11.97 9.89 18.06 14.95 4.42 4 8.31 8.47 13.09 12.08l-1.15.89c-6.14-4.48-10.7-10.6-16.76-15.22-5.46-5.26-11.07-9.63-17.74-13.28-14.38-8.09-27.56-16.34-44-19.69-5.91-1.65-11.22-4.2-17.34-5.26-12.26-2.17-25.64-4.35-38.04-2.48-17.85.06-36.35 7.7-48.29 21.14-2.44 2.95-3.79 6.96-4.9 10.59-.97 5.52-.26 11.48-.21 17.09.6 8.89.87 17.12 5.19 25.13 3.09 6.68 7.18 12.67 11.61 18.52 3.8 5.8 8.29 11 12.63 16.39 5.05 5.95 11.18 9.97 16.6 15.39 4.98 4.96 10.59 8.57 16.15 12.85 4.45 3.4 9.34 6.01 13.99 9.1 3.63 2.4 6.39 5.59 10.14 7.8 5.87 3.62 11.99 4.52 17.32 8.85-5.49-.93-10.78-4.05-15.75-6.51-4.07-1.97-6.46-5.42-10.08-7.96-5.07-3.57-10.63-5.62-15.55-9.35-5.7-4.19-11.26-7.86-16.32-12.7-5.7-5.3-11.83-10.17-17.5-15.48-8.18-10.37-16.78-19.7-23.13-31.42-.26-1.1-.49-2.26-.92-3.32-1.02-1.13-2.97-1.28-4.16-2.27-1.61-2.44-2.5-5.44-3.46-8.18-2.57-7.29-1.88-14.73-3.76-22.28-1.37-5.52-1.09-11-.5-16.6.45-4.26 1.79-8 4.05-11.63 5.72-6.99 14.14-12.02 22.21-15.86 13.57-5.69 29.09-7.29 43.69-7.34z"/><path d="M746 333l55.31.04.06 38.96c-.07 7.77.6 14.78-2.09 22.27-4.93 14.62-18.8 25.34-34.25 26.15-7.34.18-14.71.09-22.05.05-15.28-.36-29.34-10.48-34.77-24.73-3.35-8.23-2.62-16.09-2.6-24.76.25-14.04 8.94-27.64 21.52-33.86 5.86-3.02 12.31-4.18 18.87-4.12zm-625.01 7.14c12.4-1.87 25.78.31 38.04 2.48 6.12 1.06 11.43 3.61 17.34 5.26l-3.47 1.33c-9.63-3.32-19.8-5.25-29.87-6.65-8.96-.33-18.1-.58-26.98.82-13.02 1.51-24.31 7.08-35.1 14.22-2.4 1.28-4.53 2.81-6.62 4.55-.54-.3-1.09-.59-1.63-.87 11.94-13.44 30.44-21.08 48.29-21.14z" class="L"/><path d="M116.05 343.38c8.88-1.4 18.02-1.15 26.98-.82 10.07 1.4 20.24 3.33 29.87 6.65 5.53 1.86 11.14 3.02 16.49 5.44 8.31 3.74 16.26 8.4 24.2 12.72 7.52 3.59 14.19 8.1 20.45 13.58 6.88 4.81 10.75 12.21 17.88 16.76l-1.05-.32c-3.04-1.71-5.92-3.27-8.17-6.02-2.98-3.53-5.6-7.02-9.42-9.74-4.67-3.19-8.57-6.78-13.61-9.33-3.73-2.07-7.82-3.38-11.45-5.59-6-3.87-12.54-6.95-18.99-9.98-8.36-3.7-16.96-5.85-25.9-7.57l-17.35-3.32c-7.84-1.85-16.26-1.68-24.18-.39-8.77.76-17.44 3.3-25.44 6.93-6.95 3.27-11.81 8.53-16.92 14.06-1.78 2.03-3.32 4.15-4.15 6.75-1.43 3.85-.29 8.42-.99 12.53-.85 4.84-.86 9.5.11 14.33-.13-7.8-.16-14.96 1.73-22.63 3.13-7.87 9.7-14.11 16.8-18.49 9.82-6.43 20.83-9.12 32.24-11.2 10.22-.86 19.8.72 29.8 2.63 8.27 1.03 16.36 2.94 24.29 5.49 6.35 2.09 11.64 5.33 17.68 8.17 3.62 1.71 7.16 3.42 10.22 6.07-7.66-2.25-13.98-7.36-21.84-9.29-7.92-3.38-15.83-6.47-24.38-7.87-7.98-.92-15.83-2.28-23.9-2.35-14.19-1.55-29.09 2.97-41.16 10.3-8.42 5.02-15.16 12.33-17.81 21.94-1.57 4.98-.54 10.93-.66 16.15-.09 5.92 1.99 11.32 5.07 16.28l-1.86-16.21c-.6-6.19.34-12.08 1.02-18.2 4.46-10.27 14.37-16.48 24.07-21.14 7.41-4.46 15.06-5.02 23.38-6.68 8.22-.82 16.4-.3 24.51 1.23 10.21.89 20.28 5.13 30.01 8.29 6.56 2.55 12.64 5.73 18.85 9 9.45 3.53 16.58 9.48 24.55 15.44 4.61 3.49 7.77 8.14 11.94 12.05 4.34 4 8.3 8.37 12.51 12.5 4.25 4.25 6.33 9.28 9.11 14.47l-.24 2.27c-3.67-6.44-7.38-13.73-12.86-18.74-3.62-3.42-6.73-7.3-10.38-10.69-3.34-3.09-5.89-6.66-9.48-9.49-6.34-5.04-13.09-9.69-20.13-13.7-4-2.1-8.2-3.72-12.07-6.07-7.65-4.53-15.68-5.71-24.35-8.94-7.95-2.92-16.12-3.9-24.4-5.33-6.23-.81-12.66-.73-18.83.45-7.54 1.5-14.39 1.67-20.99 6.06-6.5 4.23-14.31 7.98-18.01 15.02-4.16 6.36-6.36 13.56-5.66 21.2.74 8.01 1.77 16.94 5.67 24.06 5.1 9.56 11.64 18.11 19.2 25.85 4.83 4.86 8.67 9.8 14.39 13.65 4.17 2.8 8.36 5.48 12.07 8.89 3.68 3.41 8.01 4.75 10.33 9.53-10.28-8.03-21.1-15.4-31.06-23.8-7.59-7.7-15.09-14.85-21.02-23.97-3.12-4.36-4.65-8.75-8.71-12.3-2.98-2.62-5.48-5.39-7.36-8.91-2.41-4.08-4.99-7.44-5.25-12.39-.39-7.94.4-15.78-.68-23.7 1.34-3 3.25-5.76 5.2-8.38 2.64-2.85 4.9-4.75 4.99-8.97 10.79-7.14 22.08-12.71 35.1-14.22z"/><path d="M145.98 345.84l17.35 3.32c-2.78.62-5.47 1.3-8.35 1.2-10-1.91-19.58-3.49-29.8-2.63-11.41 2.08-22.42 4.77-32.24 11.2-7.1 4.38-13.67 10.62-16.8 18.49-1.89 7.67-1.86 14.83-1.73 22.63-.97-4.83-.96-9.49-.11-14.33.7-4.11-.44-8.68.99-12.53.83-2.6 2.37-4.72 4.15-6.75 5.11-5.53 9.97-10.79 16.92-14.06 8-3.63 16.67-6.17 25.44-6.93 7.92-1.29 16.34-1.46 24.18.39z" class="L"/><g class="I"><path d="M176.37 347.88c16.44 3.35 29.62 11.6 44 19.69 6.67 3.65 12.28 8.02 17.74 13.28 6.06 4.62 10.62 10.74 16.76 15.22 4.68 5.05 10.14 8.67 13.68 14.41 6.59 10.4 13.38 19.94 15.6 32.34-.03 5.61.04 10.97-1.69 16.38-.58-6.02-.1-11.67-2.69-17.33-2.75-12.27-10.32-23.91-17.75-33.89-3.46-3.28-6.24-7.51-10.1-10.27-7.13-4.55-11-11.95-17.88-16.76-6.26-5.48-12.93-9.99-20.45-13.58-7.94-4.32-15.89-8.98-24.2-12.72-5.35-2.42-10.96-3.58-16.49-5.44a130.89 130.89 0 0 1 3.47-1.33z"/><path d="M163.33 349.16c8.94 1.72 17.54 3.87 25.9 7.57 6.45 3.03 12.99 6.11 18.99 9.98 3.63 2.21 7.72 3.52 11.45 5.59 5.04 2.55 8.94 6.14 13.61 9.33 3.82 2.72 6.44 6.21 9.42 9.74 2.25 2.75 5.13 4.31 8.17 6.02 3.27 4.31 7.41 7.79 10.7 12.08 4.48 5.76 8.44 12.01 11.62 18.59 2.43 4.99 3.51 10.36 4.57 15.78-1.77 3.37-2.7 6.06-2.46 9.93-.16 2.15-.46 4.27-.76 6.4l-2.59 2.76c.01-5.32.61-10.52 1.45-15.77.46-2.68.17-4.94-.65-7.51-3.75-13.97-11.89-26.24-21.97-36.45-3.34-4.19-8.24-6.26-11.39-10.6-3.06-3.94-6.46-7.54-10.59-10.36-6.67-4.55-12.52-11.09-20.9-12.34 4.06 3.13 8.76 5.16 12.73 8.43 5.08 4.21 10.6 6.99 14.88 12.15 4.24 5.14 9.58 9.05 13.99 14.01 3.62 3.52 7.14 6.93 9.73 11.33 3.95 6.48 9.51 13.45 10.31 21.14.31 5.53.16 11.53-.39 17.04-.76 4.93-.97 10.54-2.85 15.15a58.76 58.76 0 0 1-4.26 8.46c-5.56 7.89-14.58 12.52-23.4 15.84l-3.88-1.78c11.02-4.54 20.85-11.12 26.67-21.83 3.36-6.84 4.19-15.32 4.14-22.84-.03-3.86.25-7.87-.36-11.68-.79-3.3-3.02-6.36-4.63-9.32-2.78-5.19-4.86-10.22-9.11-14.47-4.21-4.13-8.17-8.5-12.51-12.5-4.17-3.91-7.33-8.56-11.94-12.05-7.97-5.96-15.1-11.91-24.55-15.44-6.21-3.27-12.29-6.45-18.85-9l1.71-1.74c7.86 1.93 14.18 7.04 21.84 9.29-3.06-2.65-6.6-4.36-10.22-6.07-6.04-2.84-11.33-6.08-17.68-8.17-7.93-2.55-16.02-4.46-24.29-5.49 2.88.1 5.57-.58 8.35-1.2z"/></g><path d="M137.05 350.58c8.07.07 15.92 1.43 23.9 2.35 8.55 1.4 16.46 4.49 24.38 7.87l-1.71 1.74c-9.73-3.16-19.8-7.4-30.01-8.29-8.11-1.53-16.29-2.05-24.51-1.23-8.32 1.66-15.97 2.22-23.38 6.68-9.7 4.66-19.61 10.87-24.07 21.14-2.2 4.32-2.12 8.57-2.91 13.26l-.66-11.28c2.65-9.61 9.39-16.92 17.81-21.94 12.07-7.33 26.97-11.85 41.16-10.3z" class="L"/><path d="M197.91 349.99c2.95.45 5.71 1.42 8.43 2.62 9.19 3.77 17.51 8.89 25.83 14.25 3.6 2.43 6.56 5.32 9.85 8.12 13.75 11.61 26.47 24.39 37.96 38.24 6.55 12.62 13.23 24 14.94 38.43.33 1.63.75 3.24 1.19 4.85 2.78-2.05 3.02-4.05 3.31-7.32-.09-1.37-.22-2.73-.4-4.08 1.21 3.97 2.6 8.36 2.37 12.54-.41 4.2-3.85 7.3-6.73 10.04-5.25 4.8-9.53 10.35-15.36 14.55-6.69 4.78-10.49 10.88-18.32 13.89 1.88-3.16 4.09-6.07 6.3-8.99l-1.35-.51c3.45-2.83 6.81-5.52 9.67-8.99 3.84-4.83 7.78-9.04 9.66-15.08l-2.09.45c1.75-6.76 2.89-13.29.98-20.18-2.22-12.4-9.01-21.94-15.6-32.34-3.54-5.74-9-9.36-13.68-14.41l1.15-.89c5.71 5.45 11.95 10.87 16.33 17.47 6.2 9.31 11.8 18.38 14.6 29.32.65 4.53 1.04 9 .3 13.55-.54 3.26-1.16 6.49-1.41 9.79 3.5-2.34 6.38-6.2 7.1-10.39.17-3.35-.89-6.89-1.5-10.19-1-6.69-3.38-12.49-6.81-18.27-5.03-10.41-11.88-19.86-20.27-27.82-6.73-6.96-13.94-13.39-21.14-19.86-4.96-4.24-9.49-8.52-15.14-11.87-6.66-3.97-12.8-8.08-19.64-11.33-3.7-1.81-7.4-2.75-10.53-5.59z" class="K"/><path d="M63.82 350.87l-1.74 4.79 2.06-.37c-2.26 3.63-3.6 7.37-4.05 11.63l-1.85 1.89-.35-4.93c.92-4.84 2.75-9.22 5.93-13.01zm82.85 4.44c8.28 1.43 16.45 2.41 24.4 5.33 8.67 3.23 16.7 4.41 24.35 8.94 3.87 2.35 8.07 3.97 12.07 6.07-.91.56-1.8 1.14-2.7 1.72-4.38-1.91-8.5-4.05-12.66-6.41-6.48-3.65-13.18-4-20.04-6.75-7.09-2.79-14.51-4.11-22.05-4.98-7.85-1.29-16.05-1.32-23.86.31-6.56 1.34-12.68 2.49-18.29 6.38-4.09 2.83-8.58 5.34-12.26 8.7-4.49 4.32-5.73 9.55-7.82 15.19-1.86 4.72-1.81 9.44-2.3 14.41-.89-2.7-1.69-5.33-1.6-8.22-.01-6.46 3.4-12.68 4.93-19.16 3.7-7.04 11.51-10.79 18.01-15.02 6.6-4.39 13.45-4.56 20.99-6.06 6.17-1.18 12.6-1.26 18.83-.45z" class="I"/><path d="M80.95 357.6c-.09 4.22-2.35 6.12-4.99 8.97-.57-1.47-1.12-2.94-1.63-4.42 2.09-1.74 4.22-3.27 6.62-4.55z" class="J"/><path d="M150.04 359.23c7.54.87 14.96 2.19 22.05 4.98 6.86 2.75 13.56 3.1 20.04 6.75 4.16 2.36 8.28 4.5 12.66 6.41 7.88 4.89 15.94 9.86 23.06 15.82 3.78 4.2 7.84 8.14 11.57 12.37 4.22 5.99 9.94 10.03 13.33 16.63 3.01 5.74 7.24 12.08 6.7 18.76-.15 5.28.5 10.04-.9 14.9-1.28 4.64-2.49 9.71-4.81 13.94-3.02 5.18-7.36 8.42-12.01 12-7.83 4.9-16.73 5.99-25.78 6.87-7.95-.07-15.05.63-22.5-1.19-5.83-1.48-12.23-2.73-17.65-5.37-2.85-1.38-4.24-4.26-7.02-5.89-4.78-2.91-8.38-6.29-14.06-7.32-4.98-.83-8.03-3.89-12.19-6.45-4.3-2.68-7.96-6.15-12.36-8.69-4.82-2.84-7.08-7.12-10.99-10.92-2.55-2.49-5.1-4.92-7.22-7.79-3.56-4.6-5.53-9.82-7.86-15.12-1.94-4.56-3.66-8.83-3.25-13.92.36-4.06.71-8.09.87-12.16 1.43-4.54 3.58-9.68 7.32-12.8 8.57-6.38 18.45-10.82 29.15-11.93 5.54-1.14 10.32.64 15.8.65 3.71.1 7.22.82 10.83 1.55 4.82 1.1 9.59 2.36 14.34 3.73 5.99 1.74 10.21 5.32 15.72 8.06 4.42 2.19 8.57 4.85 12.91 7.19 6.26 3.19 11.79 8.28 17.07 12.87 4.7 4.03 7.33 9.01 11.15 13.78 5.67 7.17 10.39 15.59 10.97 24.89.86 3.84-.53 6.98-1.68 10.55-1.74 4.68-3.27 9.77-6.01 13.97-3.85 4.62-9.75 7.79-15.47 9.44-11.47 3.41-23.5 4.16-35.22 1.54-5.87-1.46-12.09-2.52-17.63-5 8.27.26 15.75 3.48 24.03 4 6.05.9 11.97.24 18.02-.31 10.35-1.07 21.85-6.79 26.49-16.56 1.87-3.57 3.95-7.07 5.56-10.77.68-1.53.24-3.58.08-5.2-.76-4.53-.78-8.72-2.39-12.97-1.48-3.94-4.05-7.35-6.45-10.77-2.79-3.87-5.43-7.89-8.4-11.61-2.87-3.63-7.08-6.48-10.7-9.39-3.21-2.48-6.11-5.4-9.82-7.09-5.97-2.5-11.17-6.32-16.99-9.14-12.75-7.75-28.41-10.97-43.19-10.99-10.08-.96-19.27 2.07-28.2 6.42-4.94 2.8-10.12 6.19-12.61 11.5-4.41 8.82-3.97 20.12-.6 29.22 2.17 8.31 6.96 15.52 13.15 21.38 4.41 4.22 6.76 9.06 12.02 12.11 4.79 2.73 8.54 6.79 13.22 9.7 3.41 2.12 7.25 5.99 11.4 5.93.06-1.92-1.65-2.54-2.96-3.54-4.58-2.95-9.31-5.92-13.34-9.56-2.02-1.8-4.24-3.26-6.6-4.58-4.22-2.35-6.71-6.48-9.68-10.12-3.23-3.9-6.61-7.41-8.99-11.94-4.61-8.24-5.68-17.29-5.54-26.59.28-7.71 4.16-15.04 10.73-19.2 10.51-6.05 22.67-8.7 34.75-7.85 11.53 1.14 22.52 4.68 32.92 9.71 3.82 1.93 7.76 3.21 11.23 5.79 4.01 2.94 8.61 4.28 12.37 7.6 4.7 4.31 10.09 6.88 14.16 11.86 6.41 7.85 12.4 16.57 15.38 26.34 1.23 6.46.59 13.19-2.32 19.13-3.26 8.61-12.01 14.49-20.42 17.32-6.5 2.23-12.57 1.56-19.31 1.54-6.59-.05-12.71-1.83-19.32-2.7-5.31-1.12-10.26-.62-14.57-4.1-3.96-3.18-8.51-5.39-12.53-8.47-3.6-2.83-7.67-4.81-11.04-7.95-3.49-3.29-7.8-4.24-10.51-8.49-4.75-6.82-11.16-14.22-13.4-22.28-1.98-7.34-3.03-15.86-1.16-23.31 1.72-5.62 8.22-9.35 13.17-11.8 10.54-5.7 23.63-5.92 35.14-3.69 8.98 1.47 16.27 5.47 24.62 8.78 4.76 1.76 8.32 5.15 12.87 7.31 4.68 2.19 7.93 5.88 12.24 8.59 2.41 1.52 4.68 3.17 6.46 5.43 5.16 6.41 9.27 13.71 12.46 21.29 1.1 2.9 2.53 5.96 1.83 9.13-1.11 4.62-1.25 8.97-4.09 12.71-4.53 6.46-11.53 12.44-19.43 14.07-3.56.81-7.05 1.47-10.71.96-8.47-1.13-18.02-1-26.18-3.94-11.46-3.64-22.07-11.2-31.43-18.61-2.64-1.97-5.44-3.1-7.49-5.51-1.84-2.19-3.29-4.73-4.91-7.08-2.57-3.91-5.54-8.07-6.69-12.65-1.9-7.49-2.18-15.48-.66-23.06.53-2.45 2.34-3.97 4.28-5.37 8.6-5.72 18.81-8.28 29.09-8.05 9.25-.31 18.97 3.43 27.49 6.77 5.16 1.95 8.88 5.62 13.71 8.1 7.93 4.06 15.74 9.72 20.61 17.32 4.95 7.7 9.23 15.37 9.62 24.76-.3 4.09-2.36 7.61-4.85 10.76-4.86 6.61-12.17 11.3-20.54 11.5-5.93.04-11.88-.9-17.79-1.47-7.76-1.44-16.3-3.53-22.85-8.11-4.27-2.68-8.58-5.25-12.54-8.41-3.48-2.78-7.46-5.23-10.5-8.5-5.67-7.08-10.5-14.07-9.77-23.62.79-6 1.71-13.6 6.97-17.42 4.82-3.39 11.12-4.98 16.84-6.08 6.9-1.23 12.57.87 19.24 2.02 3.25.66 6.61.96 9.57 2.3 4.12 1.82 7.87 4.88 11.8 7.19 4.71 2.86 9.36 4.61 13.07 8.89 4.71 5.51 9.4 11.64 12.21 18.36 1.89 5.11.75 11.47-.8 16.56-1.22 5-5.55 8.43-9.82 10.83-4.71 2.51-9.53 2.43-14.71 2.34-5.91.19-12.07-1.74-17.66-3.55-1.92-1.63-3.75-3.73-5.92-5-2.8-1.68-5.96.04-8.86-1.9-5.53-3.38-10.79-7.28-15.95-11.19-3.92-2.93-5.52-6.95-7.64-11.18-1.26-2.7-2.85-5.53-3.41-8.47.16-2.9 1.25-5.77 1.79-8.63 2.55-8.15 11.22-13.93 19.66-13.76 4.24.07 8.94-.46 13.03.74l-.79 1.07c-3.39.99-7.37.1-10.91.56-5.99.92-11.87 2.92-15.79 7.81-2.4 3.25-4.28 6.91-6.1 10.51 1.8 4.25 3.7 8.25 7 11.57 3.41 3.56 7.64 5.38 11.43 8.55 2.02 1.49 4.36 3.86 6.93 4.1 6.33.38 11.47 4.97 18.16 5.07 4.39.07 8.63 1.3 12.99 1.34 1.99.18 3.33-1.87 4.61-3.12 2.75-2.83 4.72-6.5 7.88-8.8-.08 1.77-.44 2.73-1.63 4.02-2.12 2.43-4.36 4.68-6.15 7.38 4.81-.93 8.06-6.93 9.71-11.09-.88-8.71-6.13-14.47-12.24-20.15-2.71-2.37-6.1-3.8-9-5.98-7.15-5.29-16.44-6.78-25.13-5.92-4.46.6-8.72 1.6-11.71 5.23-1.04 1.16-.96 2.46-1.13 3.91l-2.57.74.03-5.04c2.61-2.24 5.1-4.85 8.48-5.85 7.47-2.4 16.06-1.79 23.53.31 6.09 1.72 10.24 5.4 15.47 8.65 5.67 3.39 10.16 8.89 13.55 14.49 1.82 3.79 4.38 9.06 1.94 13.1-1.98 3.48-4.03 7.71-8.13 9.01-2.66.9-5.62 2-8.46 1.9-4.56-.59-8.7-2.28-13.37-2.18 2.74 2.87 7.61 3.76 11.41 4.25 5.56.29 10.81-.1 15.87-2.61 1.86-1.02 2.32-3.98 3.21-5.79 1.16-3.36 3.89-6.61 4.38-10.09-1.21-4.58-4.09-8.87-6.76-12.73-3.17-4.06-5.82-7.95-10.38-10.58-3.65-2.01-7.18-4.1-10.67-6.38-5.27-3.34-10.76-3.63-16.61-5.56l1.87-1.42c6.71.33 12.49 3.08 18.05 6.65 5.4 3.52 11.38 5.78 15.27 10.76 4.06 4.98 7.98 10.34 10.74 16.17 1.35 2.95.32 5.42-.94 8.15-2.46 4.78-1.56 9.28-6.41 12.58-5.21 4.22-10.47 2.9-16.68 3.11-3.39.04-6.69-.73-9.84-1.94-2.62-.96-4.5-3.4-6.95-4.9-4.89-2.97-11.1-3.45-16.06-6.02-4.96-3.31-9.32-7.24-14.78-9.85 2.57 4.33 6.42 6.36 10.24 9.37 3.3 2.61 6.91 4.7 10.95 5.91 2.34.61 5.07.84 7.17 2.03 3.77 2.06 6.12 5.21 10.47 6.35 7.96 2.36 18.44 3.59 25.96-.66 8.01-4.55 12.41-13.89 11.26-22.98-1.42-4.78-5.52-8.99-8.32-13.11-4-5.73-8.89-10.66-15.2-13.81-4.43-2.13-8.34-5.16-12.77-7.23-6.16-2.13-12.46-3.61-18.98-3.95-7.63-1.48-15.37.31-22.07 4.05-4.16 2.41-6.55 6.5-8.4 10.8-1.6 3.82-3.16 7.88-1.8 12.04 1.91 5.12 4.69 10.01 7.83 14.48 2.92 4.05 6.85 6.21 10.68 9.33 3.2 2.56 6.47 4.99 10.07 6.99 4.52 2.44 7.74 5.93 12.99 6.92 4.97 1.32 9.56 3.24 14.58 3.57 6.3.39 13.48 1.91 19.76.73 6.54-1.86 12.28-7.47 16.75-12.39 3.43-3.64 1.73-10.07 1.3-14.54-.24-5.34-2.58-9.84-5.47-14.19-3.52-5.16-7.12-10.2-12.11-14.03-4.09-3.3-8.73-5.1-13.1-7.94-4.35-2.73-7.65-6.01-12.81-7.24-5.37-1.25-10.51-3.21-15.94-4.04-12.48-2.33-25.53 1.03-36.18 7.66-2.5 1.69-3.59 3.74-3.76 6.75-.34 5.55-1.38 11.32-.86 16.87 1.84 6.94 7.32 13.44 11.23 19.41 2.26 3.48 5.52 4.88 8.69 7.35 4.36 3.36 8.64 6.79 13.37 9.64 11.5 7.47 24.52 10.76 38.11 11.58 7.82 1.25 16.63.17 23.15-4.62 4.03-2.89 7.52-6.59 10.85-10.25 3.37-3.32 3.53-9.41 3.62-13.87-1.63-5.65-4.02-11.29-7.18-16.26-2.78-4.41-4.97-8.73-8.97-12.2-8.44-6.84-17.53-12.71-26.96-18.08-2.77-1.44-5.67-2.24-8.65-3.41-4.27-1.65-8.12-3.58-12.67-4.49-4.66-1.02-9.42-1.24-14.17-1.87-11.39-.52-22.68 2.29-31.49 9.78-2.48 2.37-4.64 5.34-5.85 8.56-.78 4.21-.36 8.72-.15 12.97.84 8.46 6.02 15.87 10.95 22.48 2.98 3.85 5 8.48 9.35 10.85 3.52 2.03 6.46 4.77 9.82 7.02 7.66 4.79 14.06 10.27 22.69 13.5 8.42 3.07 18.01 3.85 26.9 4.76 4.84.34 9.76.5 14.59.05 7.87-1.09 14.82-6.07 20.22-11.67 3.01-3.11 6.36-6.35 6.6-10.97.27-6.29 1.72-11.75-.63-17.84-3.04-7.34-7.97-14.07-12.9-20.26-3.58-4.57-8.11-6.9-12.56-10.52-2.83-2.29-5.73-4.4-8.99-6.06-3.75-1.97-6.86-4.6-10.71-6.25-8.58-3.53-16.14-7.72-25.32-9.67-11.27-3.01-23.5-3.43-34.6.49-5.41 1.8-11.27 4.51-15.25 8.71-2.59 3.2-5.09 6.82-6.8 10.58-1.36 6.87-.44 14.25 2.03 20.79 3.75 10.52 10.54 18.14 17.62 26.5 2.42 2.83 5.62 4.21 8.44 6.53 5.9 5.25 13.11 8.45 18.94 14 2.69 2.74 5.94 3.99 9.14 5.96 2.61 1.52 4.92 3.42 7.81 4.23 12.79 3.52 25.18 6.37 38.56 5.18 7.67-.77 15.97-2.41 22.71-6.29 4.71-2.59 8.45-6.82 10.49-11.79 1.43-3.38 2.89-6.74 4.5-10.04 4.56-7.73 1.85-15.38-1.35-22.97-3.5-8.16-9.19-13.68-14.29-20.76-4.5-6.64-10.74-12.17-17.19-16.86-8.81-5.69-18.29-10.38-27.29-15.76-5.95-3.57-12.89-5.44-19.65-6.8-9.67-2.61-19.45-3.04-29.34-4.31-7.45.82-15.08 2.21-21.98 5.27-5.04 2.07-10.39 4.7-14.09 8.81-2.88 3.09-4.34 6.67-6.09 10.43-4.56 2.68-3.2 7.3-2.81 11.7 1.02 5.74 2.07 11.6 3.55 17.23 3 7.94 7.49 15.59 13.64 21.51 2.72 2.63 5.42 5.23 7.75 8.23 2.08 2.65 4.31 5.07 7.28 6.74 4.66 2.6 8.66 6.05 13.07 9.03 4 2.71 7.42 5.52 12.23 6.71 6.37 1.41 12.18 5.81 17.46 9.5-6.38-1.14-10.63-5.41-16.58-7.5-10.21-3.59-18.52-11.76-27.96-17.03-3.88-2.26-6.22-5.53-9-8.92-3.25-4.06-7.26-7.48-10.45-11.55-4.65-6.25-7.89-13.22-10.43-20.56-2.62-6.89-2.84-13.65-3.38-20.88 1.16-5.14 2-11.56 6.15-15.21 4.56-4.26 10.18-7.82 16.03-10 10.36-3.92 20.36-7.08 31.62-5.49 3.16.66 6.35.55 9.53.95 4.81.9 9.65 1.9 14.31 3.41 6.36 2.17 12.44 3.3 18.36 6.64 7.07 4 14.48 7.17 21.24 11.72 4.88 3.28 9.67 5.32 13.64 9.32 4.11 4.05 8.21 7.72 11.51 12.49 4.15 5.96 9.2 10.76 12.81 17.11 4.26 7.6 6.32 16.48 4.66 25.13-1.02 4.03-2.72 7.87-3.91 11.85-2.07 6.89-7.71 12.42-13.97 15.68-7.34 3.57-15.91 5.09-24.03 5.31-10.8.91-21.85-1.29-32.11-4.57-1.99-.63-3.18-.65-5.22-.1 5.6 4.13 13.68 5.25 20.38 6.48 13.94 2.61 29.1 1.98 42.19-3.82 7.16-3.61 14.1-9.69 16.79-17.45 1.74-4.71 4.47-9.92 4.53-14.96.16-6.91.13-13.39-2.78-19.82-3.06-6.47-7.7-12.4-12.52-17.66-3.62-3.85-5.99-8.49-9.83-12.15-3.53-3.39-6.54-6.91-10.78-9.26-8.37-4.75-15.58-10.9-24.58-14.55-6.98-3.99-14.01-6.76-21.84-8.59-8.35-2.67-16.56-5.04-25.37-5.52-2.69-.08-5.28-.78-7.96-.93-8.97-.65-18.37 1.65-26.75 4.72-6.88 2.98-13.31 7.11-18.82 12.2-2.69 2.55-3.87 5.78-4.84 9.27-2.96 8.64-3.24 18.71.22 27.24 2.56 8.47 7.03 15.83 12.23 22.9 3.73 4.98 8.39 8.87 12.36 13.63 1.84 2.16 3.5 4.52 5.8 6.22 2.74 2 5.84 3.48 8.66 5.39 4.78 3.07 9.13 7.09 14.01 9.95 3.55 1.93 7.48 3.03 11.04 4.97 3.7 2.01 7.48 3.9 11.09 6.07-6.76-1.14-11.45-5.12-17.67-7.54-1.99-.84-4.11-1.31-6.09-2.15-3.66-1.7-6.41-4.73-9.48-7.23-4.77-3.9-10.24-6.04-14.78-10.27-3.97-3.43-6.73-7.83-10.53-11.44-6.41-6.34-11.19-13.83-14.99-21.97-2.26-4.97-6.18-10.08-6.16-15.65-.06-5.68-.08-11.42.46-17.07 2.09-5.64 3.33-10.87 7.82-15.19 3.68-3.36 8.17-5.87 12.26-8.7 5.61-3.89 11.73-5.04 18.29-6.38 7.81-1.63 16.01-1.6 23.86-.31z"/><path d="M64.72 360.97l-.79 5.42 2.13-.01c-2.31 7.63-1.57 14.79-1.44 22.64-1.72-9.38-4.56-19.02.1-28.05z" class="J"/><path d="M72.7 361.28l1.63.87 1.63 4.42c-1.95 2.62-3.86 5.38-5.2 8.38-.96 2.96-1.11 5.95-1.3 9.04-.78-4.03-1.53-8.01-1.66-12.12 1.11-3.63 2.46-7.64 4.9-10.59z" class="I"/><path d="M142.05 360.57c2.68.15 5.27.85 7.96.93 8.81.48 17.02 2.85 25.37 5.52-1.53.36-3.03.78-4.54 1.2-4.66-1.51-9.5-2.51-14.31-3.41-3.18-.4-6.37-.29-9.53-.95-11.26-1.59-21.26 1.57-31.62 5.49-5.85 2.18-11.47 5.74-16.03 10-4.15 3.65-4.99 10.07-6.15 15.21-1.84-2.55-1.76-4.77-1.56-7.8.97-3.49 2.15-6.72 4.84-9.27 5.51-5.09 11.94-9.22 18.82-12.2 8.38-3.07 17.78-5.37 26.75-4.72z" class="L"/><path d="M57.89 363.88l.35 4.93 1.85-1.89c-.59 5.6-.87 11.08.5 16.6 1.88 7.55 1.19 14.99 3.76 22.28.96 2.74 1.85 5.74 3.46 8.18 1.19.99 3.14 1.14 4.16 2.27.43 1.06.66 2.22.92 3.32.3 2.4.51 4.61 2.01 6.61 4.07 5.89 8.23 11.72 12.56 17.43 3.22 4.43 6.38 8.73 10.7 12.19 5.37 4.29 10.32 9.02 15.27 13.78 4.36 4.27 9.35 7.04 14.19 10.81 5.96 4.72 13.09 6.96 18.69 12.28-7.99-3.03-15.66-7.28-22.4-12.56-10.16-7.34-19.49-15.83-29.06-23.91-3.29-2.62-6.23-5.61-9.09-8.68-1.49-3.61-3.24-6.54-5.8-9.49-3.71-4.26-6.11-8.74-10.71-12.14 2.52 5.32 5.2 10.54 7.36 16.02l.16 2.07c-1.31-.92-2.6-1.87-3.83-2.89-8.57-11.18-15.85-22.74-19.6-36.47-3.3-11.65-5.87-25.79-2.15-37.57-.07 5.33-.09 10.65.05 15.98.65-3.83.96-7.51 2.75-11.01 1.37-2.7 2.87-5.28 3.9-8.14z" class="K"/><path d="M140.99 365.84c9.89 1.27 19.67 1.7 29.34 4.31l-5.51 1.16c-3.61-.73-7.12-1.45-10.83-1.55-5.48-.01-10.26-1.79-15.8-.65-10.7 1.11-20.58 5.55-29.15 11.93-3.74 3.12-5.89 8.26-7.32 12.8-1.51 4.36-2 8.86-3.13 13.31-.28-5.61.41-11.18.24-16.8 1.75-3.76 3.21-7.34 6.09-10.43 3.7-4.11 9.05-6.74 14.09-8.81 6.9-3.06 14.53-4.45 21.98-5.27z" class="L"/><path d="M175.38 367.02c7.83 1.83 14.86 4.6 21.84 8.59 9 3.65 16.21 9.8 24.58 14.55 4.24 2.35 7.25 5.87 10.78 9.26 3.84 3.66 6.21 8.3 9.83 12.15 4.82 5.26 9.46 11.19 12.52 17.66 2.91 6.43 2.94 12.91 2.78 19.82-.06 5.04-2.79 10.25-4.53 14.96-2.69 7.76-9.63 13.84-16.79 17.45-13.09 5.8-28.25 6.43-42.19 3.82-6.7-1.23-14.78-2.35-20.38-6.48 2.04-.55 3.23-.53 5.22.1 10.26 3.28 21.31 5.48 32.11 4.57 8.12-.22 16.69-1.74 24.03-5.31 6.26-3.26 11.9-8.79 13.97-15.68 1.19-3.98 2.89-7.82 3.91-11.85 1.66-8.65-.4-17.53-4.66-25.13-3.61-6.35-8.66-11.15-12.81-17.11-3.3-4.77-7.4-8.44-11.51-12.49-3.97-4-8.76-6.04-13.64-9.32-6.76-4.55-14.17-7.72-21.24-11.72-5.92-3.34-12-4.47-18.36-6.64zm-5.05 3.13c6.76 1.36 13.7 3.23 19.65 6.8 9 5.38 18.48 10.07 27.29 15.76 6.45 4.69 12.69 10.22 17.19 16.86 5.1 7.08 10.79 12.6 14.29 20.76 3.2 7.59 5.91 15.24 1.35 22.97l-2.21-1.45-2.59.53c1.15-3.57 2.54-6.71 1.68-10.55-.58-9.3-5.3-17.72-10.97-24.89-3.82-4.77-6.45-9.75-11.15-13.78-5.28-4.59-10.81-9.68-17.07-12.87-4.34-2.34-8.49-5-12.91-7.19-5.51-2.74-9.73-6.32-15.72-8.06-4.75-1.37-9.52-2.63-14.34-3.73 1.85-.35 3.67-.79 5.51-1.16z" class="I"/><path d="M207.9 369.9c8.38 1.25 14.23 7.79 20.9 12.34 4.13 2.82 7.53 6.42 10.59 10.36 3.15 4.34 8.05 6.41 11.39 10.6 10.08 10.21 18.22 22.48 21.97 36.45-1.75 5.76-.99 11.48-1.78 17.34-.52 4.3-.59 8.35-1.65 12.57-.9 3.43-2.88 6.37-4.71 9.35l-2.57-1.3a58.76 58.76 0 0 0 4.26-8.46c1.88-4.61 2.09-10.22 2.85-15.15.55-5.51.7-11.51.39-17.04-.8-7.69-6.36-14.66-10.31-21.14-2.59-4.4-6.11-7.81-9.73-11.33-4.41-4.96-9.75-8.87-13.99-14.01-4.28-5.16-9.8-7.94-14.88-12.15-3.97-3.27-8.67-5.3-12.73-8.43z"/><path d="M147.21 371.53c14.78.02 30.44 3.24 43.19 10.99 5.82 2.82 11.02 6.64 16.99 9.14 3.71 1.69 6.61 4.61 9.82 7.09 3.62 2.91 7.83 5.76 10.7 9.39 2.97 3.72 5.61 7.74 8.4 11.61 2.4 3.42 4.97 6.83 6.45 10.77 1.61 4.25 1.63 8.44 2.39 12.97.16 1.62.6 3.67-.08 5.2-1.61 3.7-3.69 7.2-5.56 10.77-4.64 9.77-16.14 15.49-26.49 16.56-6.05.55-11.97 1.21-18.02.31-8.28-.52-15.76-3.74-24.03-4 5.54 2.48 11.76 3.54 17.63 5 11.72 2.62 23.75 1.87 35.22-1.54 5.72-1.65 11.62-4.82 15.47-9.44 2.74-4.2 4.27-9.29 6.01-13.97l2.59-.53 2.21 1.45c-1.61 3.3-3.07 6.66-4.5 10.04-2.04 4.97-5.78 9.2-10.49 11.79-6.74 3.88-15.04 5.52-22.71 6.29-13.38 1.19-25.77-1.66-38.56-5.18-2.89-.81-5.2-2.71-7.81-4.23-3.2-1.97-6.45-3.22-9.14-5.96-5.83-5.55-13.04-8.75-18.94-14-2.82-2.32-6.02-3.7-8.44-6.53-7.08-8.36-13.87-15.98-17.62-26.5-2.47-6.54-3.39-13.92-2.03-20.79 1.71-3.76 4.21-7.38 6.8-10.58 3.98-4.2 9.84-6.91 15.25-8.71 11.1-3.92 23.33-3.5 34.6-.49 9.18 1.95 16.74 6.14 25.32 9.67 3.85 1.65 6.96 4.28 10.71 6.25 3.26 1.66 6.16 3.77 8.99 6.06 4.45 3.62 8.98 5.95 12.56 10.52 4.93 6.19 9.86 12.92 12.9 20.26 2.35 6.09.9 11.55.63 17.84-.24 4.62-3.59 7.86-6.6 10.97-5.4 5.6-12.35 10.58-20.22 11.67-4.83.45-9.75.29-14.59-.05-8.89-.91-18.48-1.69-26.9-4.76-8.63-3.23-15.03-8.71-22.69-13.5-3.36-2.25-6.3-4.99-9.82-7.02-4.35-2.37-6.37-7-9.35-10.85-4.93-6.61-10.11-14.02-10.95-22.48-.21-4.25-.63-8.76.15-12.97 1.21-3.22 3.37-6.19 5.85-8.56 8.81-7.49 20.1-10.3 31.49-9.78 4.75.63 9.51.85 14.17 1.87 4.55.91 8.4 2.84 12.67 4.49 2.98 1.17 5.88 1.97 8.65 3.41 9.43 5.37 18.52 11.24 26.96 18.08 4 3.47 6.19 7.79 8.97 12.2 3.16 4.97 5.55 10.61 7.18 16.26-.09 4.46-.25 10.55-3.62 13.87-3.33 3.66-6.82 7.36-10.85 10.25-6.52 4.79-15.33 5.87-23.15 4.62-13.59-.82-26.61-4.11-38.11-11.58-4.73-2.85-9.01-6.28-13.37-9.64-3.17-2.47-6.43-3.87-8.69-7.35-3.91-5.97-9.39-12.47-11.23-19.41-.52-5.55.52-11.32.86-16.87.17-3.01 1.26-5.06 3.76-6.75 10.65-6.63 23.7-9.99 36.18-7.66 5.43.83 10.57 2.79 15.94 4.04 5.16 1.23 8.46 4.51 12.81 7.24 4.37 2.84 9.01 4.64 13.1 7.94 4.99 3.83 8.59 8.87 12.11 14.03 2.89 4.35 5.23 8.85 5.47 14.19.43 4.47 2.13 10.9-1.3 14.54-4.47 4.92-10.21 10.53-16.75 12.39-6.28 1.18-13.46-.34-19.76-.73-5.02-.33-9.61-2.25-14.58-3.57l3.9-2.13c5.59 1.81 11.75 3.74 17.66 3.55 5.18.09 10 .17 14.71-2.34 4.27-2.4 8.6-5.83 9.82-10.83 1.55-5.09 2.69-11.45.8-16.56-2.81-6.72-7.5-12.85-12.21-18.36-3.71-4.28-8.36-6.03-13.07-8.89-3.93-2.31-7.68-5.37-11.8-7.19-2.96-1.34-6.32-1.64-9.57-2.3-6.67-1.15-12.34-3.25-19.24-2.02-5.72 1.1-12.02 2.69-16.84 6.08-5.26 3.82-6.18 11.42-6.97 17.42-.73 9.55 4.1 16.54 9.77 23.62 3.04 3.27 7.02 5.72 10.5 8.5 3.96 3.16 8.27 5.73 12.54 8.41 6.55 4.58 15.09 6.67 22.85 8.11 5.91.57 11.86 1.51 17.79 1.47 8.37-.2 15.68-4.89 20.54-11.5 2.49-3.15 4.55-6.67 4.85-10.76-.39-9.39-4.67-17.06-9.62-24.76-4.87-7.6-12.68-13.26-20.61-17.32-4.83-2.48-8.55-6.15-13.71-8.1-8.52-3.34-18.24-7.08-27.49-6.77-10.28-.23-20.49 2.33-29.09 8.05-1.94 1.4-3.75 2.92-4.28 5.37-1.52 7.58-1.24 15.57.66 23.06 1.15 4.58 4.12 8.74 6.69 12.65 1.62 2.35 3.07 4.89 4.91 7.08 2.05 2.41 4.85 3.54 7.49 5.51 9.36 7.41 19.97 14.97 31.43 18.61 8.16 2.94 17.71 2.81 26.18 3.94 3.66.51 7.15-.15 10.71-.96 7.9-1.63 14.9-7.61 19.43-14.07 2.84-3.74 2.98-8.09 4.09-12.71.7-3.17-.73-6.23-1.83-9.13-3.19-7.58-7.3-14.88-12.46-21.29-1.78-2.26-4.05-3.91-6.46-5.43-4.31-2.71-7.56-6.4-12.24-8.59-4.55-2.16-8.11-5.55-12.87-7.31-8.35-3.31-15.64-7.31-24.62-8.78-11.51-2.23-24.6-2.01-35.14 3.69-4.95 2.45-11.45 6.18-13.17 11.8-1.87 7.45-.82 15.97 1.16 23.31 2.24 8.06 8.65 15.46 13.4 22.28 2.71 4.25 7.02 5.2 10.51 8.49 3.37 3.14 7.44 5.12 11.04 7.95 4.02 3.08 8.57 5.29 12.53 8.47 4.31 3.48 9.26 2.98 14.57 4.1 6.61.87 12.73 2.65 19.32 2.7 6.74.02 12.81.69 19.31-1.54 8.41-2.83 17.16-8.71 20.42-17.32 2.91-5.94 3.55-12.67 2.32-19.13-2.98-9.77-8.97-18.49-15.38-26.34-4.07-4.98-9.46-7.55-14.16-11.86-3.76-3.32-8.36-4.66-12.37-7.6-3.47-2.58-7.41-3.86-11.23-5.79-10.4-5.03-21.39-8.57-32.92-9.71-12.08-.85-24.24 1.8-34.75 7.85-6.57 4.16-10.45 11.49-10.73 19.2-.14 9.3.93 18.35 5.54 26.59 2.38 4.53 5.76 8.04 8.99 11.94 2.97 3.64 5.46 7.77 9.68 10.12 2.36 1.32 4.58 2.78 6.6 4.58 4.03 3.64 8.76 6.61 13.34 9.56 1.31 1 3.02 1.62 2.96 3.54-4.15.06-7.99-3.81-11.4-5.93-4.68-2.91-8.43-6.97-13.22-9.7-5.26-3.05-7.61-7.89-12.02-12.11-6.19-5.86-10.98-13.07-13.15-21.38-3.37-9.1-3.81-20.4.6-29.22 2.49-5.31 7.67-8.7 12.61-11.5 8.93-4.35 18.12-7.38 28.2-6.42z" class="I"/><path d="M67.8 371.87c.13 4.11.88 8.09 1.66 12.12.19-3.09.34-6.08 1.3-9.04 1.08 7.92.29 15.76.68 23.7.26 4.95 2.84 8.31 5.25 12.39l-.47 4.95-3.61-3.38.17 1.48c-4.32-8.01-4.59-16.24-5.19-25.13-.05-5.61-.76-11.57.21-17.09z" class="J"/><path d="M207.49 375.65c7.04 4.01 13.79 8.66 20.13 13.7 3.59 2.83 6.14 6.4 9.48 9.49 3.65 3.39 6.76 7.27 10.38 10.69 5.48 5.01 9.19 12.3 12.86 18.74 2.65 5.61 4.36 11.47 3.89 17.74-.58 7.68-2.95 15.28-5.07 22.65-3.64 6.09-8.36 11.17-14.61 14.61l-2.82-1.48c4.65-3.58 8.99-6.82 12.01-12 2.32-4.23 3.53-9.3 4.81-13.94 1.4-4.86.75-9.62.9-14.9.54-6.68-3.69-13.02-6.7-18.76-3.39-6.6-9.11-10.64-13.33-16.63-3.73-4.23-7.79-8.17-11.57-12.37-7.12-5.96-15.18-10.93-23.06-15.82zm-118.65 1.19c-1.53 6.48-4.94 12.7-4.93 19.16-.09 2.89.71 5.52 1.6 8.22.49-4.97.44-9.69 2.3-14.41-.54 5.65-.52 11.39-.46 17.07-.02 5.57 3.9 10.68 6.16 15.65 3.8 8.14 8.58 15.63 14.99 21.97 3.8 3.61 6.56 8.01 10.53 11.44 4.54 4.23 10.01 6.37 14.78 10.27 3.07 2.5 5.82 5.53 9.48 7.23 1.98.84 4.1 1.31 6.09 2.15 6.22 2.42 10.91 6.4 17.67 7.54-3.61-2.17-7.39-4.06-11.09-6.07-3.56-1.94-7.49-3.04-11.04-4.97-4.88-2.86-9.23-6.88-14.01-9.95-2.82-1.91-5.92-3.39-8.66-5.39-2.3-1.7-3.96-4.06-5.8-6.22-3.97-4.76-8.63-8.65-12.36-13.63-5.2-7.07-9.67-14.43-12.23-22.9-3.46-8.53-3.18-18.6-.22-27.24-.2 3.03-.28 5.25 1.56 7.8.54 7.23.76 13.99 3.38 20.88 2.54 7.34 5.78 14.31 10.43 20.56 3.19 4.07 7.2 7.49 10.45 11.55 2.78 3.39 5.12 6.66 9 8.92 9.44 5.27 17.75 13.44 27.96 17.03 5.95 2.09 10.2 6.36 16.58 7.5-5.28-3.69-11.09-8.09-17.46-9.5-4.81-1.19-8.23-4-12.23-6.71-4.41-2.98-8.41-6.43-13.07-9.03-2.97-1.67-5.2-4.09-7.28-6.74-2.33-3-5.03-5.6-7.75-8.23-6.15-5.92-10.64-13.57-13.64-21.51-1.48-5.63-2.53-11.49-3.55-17.23-.39-4.4-1.75-9.02 2.81-11.7.17 5.62-.52 11.19-.24 16.8 1.13-4.45 1.62-8.95 3.13-13.31-.16 4.07-.51 8.1-.87 12.16-.41 5.09 1.31 9.36 3.25 13.92 2.33 5.3 4.3 10.52 7.86 15.12 2.12 2.87 4.67 5.3 7.22 7.79 3.91 3.8 6.17 8.08 10.99 10.92 4.4 2.54 8.06 6.01 12.36 8.69 4.16 2.56 7.21 5.62 12.19 6.45 5.68 1.03 9.28 4.41 14.06 7.32 2.78 1.63 4.17 4.51 7.02 5.89 5.42 2.64 11.82 3.89 17.65 5.37l-2.81 1.83c-3.3-.38-6.53-1.01-9.64-2.2-4.59-1.59-8.34-4.1-13.16-5.04 7.28 6.78 19.22 8.24 28.49 10.41l-2.65 1.65c-7.16-1.41-13.81-1.89-20.4-5.45-3.85-2.19-7.95-3.51-12.16-4.84-5.91-1.88-10.6-5.68-16.39-7.79 1.55 1.59 3.21 3 5.2 4 8.27 4.22 16.74 8.1 25.32 11.64 6.45 2.61 12.74 3.09 19.5 4.51 8.67 1.75 17.42 2.09 26.25 1.95 8.43.17 16.87-1.3 24.73-4.37l2.68 1.4c-3.26 1.64-6.74 3.25-10.29 4.14-4.55 1.19-9.43 1.36-14.12 1.95-5.82.66-11.27-.6-17.04-.83-7.42-.45-14.8-2.34-21.88-3.35-9.77-1.6-17.92-6.27-26.79-10.31-3.91-1.69-7.76-3.46-11.53-5.44l-.95 2.34c3.71 3.39 7.69 6.83 11.89 9.59 8.38 4.41 17.36 7.99 26.66 9.91 9.06 1.59 17.43 3.88 26.62 4.43 4.71.23 9.27 1.25 14.02 1.12 6.63.14 13.24-1.57 19.89-2.71 2.65-.34 5.32-.54 7.98-.75-1.87 1.03-3.78 2.07-5.71 2.99-10.75 2.46-21.46 3.83-32.48 2.37-13.64-.69-26.39-4.27-39.81-6.42 3.23 1.69 6.7 2.76 10.27 3.48 5.78 1.18 11.49 2.73 17.3 3.73 13.31 1.47 26.03 2.75 39.34.27 4.01-.48 7.76.12 11.62 1.18-8.07 1.92-16.2 2.29-24.44 2.99-8.35-.34-16.51-2.1-24.91-2.01-10.48-1.33-21.24-3.74-30.96-7.95-3.89-1.51-7.9-2.61-11.76-4.22-5.65-2.27-10.83-5.41-16.48-7.65 3.25 2.56 6.74 4.73 10.36 6.71 6.1 3.3 11.87 6.62 18.71 8.18 8.04 1.96 15.99 4.82 24.18 6.02 10.75 1.08 21.04 2.93 31.9 2.57 8.08-.41 15.38.31 23.21-1.94 5.83-1.63 11.76-1.86 17.71-2.64-8.21 4.49-16.4 4.53-25.27 6.67-5.04 1.19-10.01 1.09-15.14 1.79-15.15 2.51-31.47-2.04-45.54-7.49-10.58-2.92-20.96-6.38-31.42-9.72-4.02-1.28-7.2-3.72-10.53-6.2-3.76-2.86-7.99-3.84-12.06-6.02-8.19-4.57-14.71-10.47-22.41-15.59-2.94-1.99-5.59-4.31-8.21-6.69-9.98-8.61-19.25-18.22-27.4-28.58 1.23 1.02 2.52 1.97 3.83 2.89l-.16-2.07c3.14 1.72 6.02 3.86 9.15 5.61 2.86 3.07 5.8 6.06 9.09 8.68 9.57 8.08 18.9 16.57 29.06 23.91 6.74 5.28 14.41 9.53 22.4 12.56-5.6-5.32-12.73-7.56-18.69-12.28-4.84-3.77-9.83-6.54-14.19-10.81-4.95-4.76-9.9-9.49-15.27-13.78-4.32-3.46-7.48-7.76-10.7-12.19-4.33-5.71-8.49-11.54-12.56-17.43-1.5-2-1.71-4.21-2.01-6.61 6.35 11.72 14.95 21.05 23.13 31.42 5.67 5.31 11.8 10.18 17.5 15.48 5.06 4.84 10.62 8.51 16.32 12.7 4.92 3.73 10.48 5.78 15.55 9.35 3.62 2.54 6.01 5.99 10.08 7.96 4.97 2.46 10.26 5.58 15.75 6.51-5.33-4.33-11.45-5.23-17.32-8.85-3.75-2.21-6.51-5.4-10.14-7.8-4.65-3.09-9.54-5.7-13.99-9.1-5.56-4.28-11.17-7.89-16.15-12.85-5.42-5.42-11.55-9.44-16.6-15.39-4.34-5.39-8.83-10.59-12.63-16.39-4.43-5.85-8.52-11.84-11.61-18.52l-.17-1.48 3.61 3.38.47-4.95c1.88 3.52 4.38 6.29 7.36 8.91 4.06 3.55 5.59 7.94 8.71 12.3 5.93 9.12 13.43 16.27 21.02 23.97 9.96 8.4 20.78 15.77 31.06 23.8-2.32-4.78-6.65-6.12-10.33-9.53-3.71-3.41-7.9-6.09-12.07-8.89-5.72-3.85-9.56-8.79-14.39-13.65-7.56-7.74-14.1-16.29-19.2-25.85-3.9-7.12-4.93-16.05-5.67-24.06-.7-7.64 1.5-14.84 5.66-21.2zm-7.19 4c-.68 6.12-1.62 12.01-1.02 18.2l1.86 16.21c-3.08-4.96-5.16-10.36-5.07-16.28.12-5.22-.91-11.17.66-16.15l.66 11.28c.79-4.69.71-8.94 2.91-13.26zm225.01 6.88l3.67 7.2c-.11 3.39-.65 6.7-1.04 10.05-.66 5.25.31 10.68.2 16.03-.09 6.6-.35 13.3-1.46 19.82-.43 2.81-1.7 5.21-3.21 7.58-.64-1.36-1.25-2.72-1.83-4.09 1.63-5 2.8-9.99 2.59-15.28.22-7.82-1.57-15.31-2.09-23.04-.45-4.49 2.58-7.11 3.65-11.14.28-2.33-.18-4.81-.48-7.13z" class="I"/><path d="M162.11 392.97c6.52.34 12.82 1.82 18.98 3.95 4.43 2.07 8.34 5.1 12.77 7.23 6.31 3.15 11.2 8.08 15.2 13.81 2.8 4.12 6.9 8.33 8.32 13.11 1.15 9.09-3.25 18.43-11.26 22.98-7.52 4.25-18 3.02-25.96.66-4.35-1.14-6.7-4.29-10.47-6.35-2.1-1.19-4.83-1.42-7.17-2.03-4.04-1.21-7.65-3.3-10.95-5.91-3.82-3.01-7.67-5.04-10.24-9.37 5.46 2.61 9.82 6.54 14.78 9.85 4.96 2.57 11.17 3.05 16.06 6.02 2.45 1.5 4.33 3.94 6.95 4.9 3.15 1.21 6.45 1.98 9.84 1.94 6.21-.21 11.47 1.11 16.68-3.11 4.85-3.3 3.95-7.8 6.41-12.58 1.26-2.73 2.29-5.2.94-8.15-2.76-5.83-6.68-11.19-10.74-16.17-3.89-4.98-9.87-7.24-15.27-10.76-5.56-3.57-11.34-6.32-18.05-6.65l-1.87 1.42c5.85 1.93 11.34 2.22 16.61 5.56 3.49 2.28 7.02 4.37 10.67 6.38 4.56 2.63 7.21 6.52 10.38 10.58 2.67 3.86 5.55 8.15 6.76 12.73-.49 3.48-3.22 6.73-4.38 10.09-.89 1.81-1.35 4.77-3.21 5.79-5.06 2.51-10.31 2.9-15.87 2.61-3.8-.49-8.67-1.38-11.41-4.25 4.67-.1 8.81 1.59 13.37 2.18 2.84.1 5.8-1 8.46-1.9 4.1-1.3 6.15-5.53 8.13-9.01 2.44-4.04-.12-9.31-1.94-13.1-3.39-5.6-7.88-11.1-13.55-14.49-5.23-3.25-9.38-6.93-15.47-8.65-7.47-2.1-16.06-2.71-23.53-.31-3.38 1-5.87 3.61-8.48 5.85-1.41 1.46-4.31 3.31-4.1 5.58-1.1 6.2 2.34 11.39 6.6 15.48 3.96 2.64 7.77 5.51 11.72 8.15 6.57.92 12.02 4.53 18.53 5.67 3.19.59 6.4 1.3 9.63 1.62 2.62.06 4.91.63 6.95-1.41 3.35-3.23 6.91-7.56 7.71-12.26.66-2.08-1.49-4.09-2.49-5.77-2.87-3.77-6.11-8.34-10.4-10.54-5.92-2.93-10.04-7.19-16.88-8.22-6.73-.81-14.78-.96-20.59 3.08-2.58 1.47-2.89 5.46-3.79 8.09l-.35-5.17c.17-1.45.09-2.75 1.13-3.91 2.99-3.63 7.25-4.63 11.71-5.23 8.69-.86 17.98.63 25.13 5.92 2.9 2.18 6.29 3.61 9 5.98 6.11 5.68 11.36 11.44 12.24 20.15-1.65 4.16-4.9 10.16-9.71 11.09 1.79-2.7 4.03-4.95 6.15-7.38 1.19-1.29 1.55-2.25 1.63-4.02-3.16 2.3-5.13 5.97-7.88 8.8-1.28 1.25-2.62 3.3-4.61 3.12-4.36-.04-8.6-1.27-12.99-1.34-6.69-.1-11.83-4.69-18.16-5.07-2.57-.24-4.91-2.61-6.93-4.1-3.79-3.17-8.02-4.99-11.43-8.55-3.3-3.32-5.2-7.32-7-11.57 1.82-3.6 3.7-7.26 6.1-10.51 3.92-4.89 9.8-6.89 15.79-7.81 3.54-.46 7.52.43 10.91-.56l.79-1.07c-4.09-1.2-8.79-.67-13.03-.74-8.44-.17-17.11 5.61-19.66 13.76-1.04 1.26-2.13 2.49-3.21 3.73l-.47-4.99c1.85-4.3 4.24-8.39 8.4-10.8 6.7-3.74 14.44-5.53 22.07-4.05z" class="L"/><path d="M310.33 394.92c1.04 2.3 1.9 4.66 2.7 7.06 2.09 18.5-1.12 36.21-6 53.98l-1.96-1.88c-2.05-5.75-4.39-11.32-5.93-17.24 1.47 2.4 2.8 4.84 3.85 7.47.58 1.37 1.19 2.73 1.83 4.09 1.51-2.37 2.78-4.77 3.21-7.58 1.11-6.52 1.37-13.22 1.46-19.82.11-5.35-.86-10.78-.2-16.03.39-3.35.93-6.66 1.04-10.05z" class="J"/><path d="M251.92 397.71c3.86 2.76 6.64 6.99 10.1 10.27 7.43 9.98 15 21.62 17.75 33.89.85 7.78 1.66 17.19-1.56 24.51-2.83 4.82-6.26 9.93-10.97 13.09 1.92-3.43 5-6.81 5.98-10.6.59-2.87.88-5.8 1.32-8.7.3-2.13.6-4.25.76-6.4.09 3.23-.07 6.35-.43 9.55-.18 1.35.12 2.69.89 4.02 1.25-1.78 2.74-3.05 2.79-5.36.37-6 .38-12.22-.79-18.14-1.06-5.42-2.14-10.79-4.57-15.78-3.18-6.58-7.14-12.83-11.62-18.59-3.29-4.29-7.43-7.77-10.7-12.08z"/><path d="M313.03 401.98c1.23 2.89 3.11 5.51 4.2 8.46.4 2.12-.05 4.45-.2 6.59-.55 4.69-.36 9.43-1.08 14.08-1 6.93-4.26 12.76-4.37 19.9-.31 6.15-.69 13.37-5.82 17.63-.05-4.92.3-9.69-.69-14.56a86.95 86.95 0 0 0 1.96 1.88c4.88-17.77 8.09-35.48 6-53.98z" class="K"/><path d="M170.87 406.12c6.84 1.03 10.96 5.29 16.88 8.22 4.29 2.2 7.53 6.77 10.4 10.54 1 1.68 3.15 3.69 2.49 5.77-.8 4.7-4.36 9.03-7.71 12.26-2.04 2.04-4.33 1.47-6.95 1.41-3.23-.32-6.44-1.03-9.63-1.62-6.51-1.14-11.96-4.75-18.53-5.67-3.95-2.64-7.76-5.51-11.72-8.15-4.26-4.09-7.7-9.28-6.6-15.48 2.09 4.11 2.99 8.44 5.92 12.14 2.58 4 6.36 5.36 10.09 7.97 1.65 1.13 3.39 2 5.25 2.73-1.73-4.64-6.05-6.5-9.77-9.27-3.2-2.24-4.26-5.97-4.5-9.68.9-2.63 1.21-6.62 3.79-8.09 5.81-4.04 13.86-3.89 20.59-3.08z"/><path d="M131.64 407.82l.47 4.99 3.21-3.73c-.54 2.86-1.63 5.73-1.79 8.63.56 2.94 2.15 5.77 3.41 8.47 2.12 4.23 3.72 8.25 7.64 11.18 5.16 3.91 10.42 7.81 15.95 11.19 2.9 1.94 6.06.22 8.86 1.9 2.17 1.27 4 3.37 5.92 5l-3.9 2.13c-5.25-.99-8.47-4.48-12.99-6.92-3.6-2-6.87-4.43-10.07-6.99-3.83-3.12-7.76-5.28-10.68-9.33-3.14-4.47-5.92-9.36-7.83-14.48-1.36-4.16.2-8.22 1.8-12.04zm11.96 0l-.03 5.04 2.57-.74.35 5.17c.24 3.71 1.3 7.44 4.5 9.68 3.72 2.77 8.04 4.63 9.77 9.27-1.86-.73-3.6-1.6-5.25-2.73-3.73-2.61-7.51-3.97-10.09-7.97-2.93-3.7-3.83-8.03-5.92-12.14-.21-2.27 2.69-4.12 4.1-5.58z" class="I"/><path d="M167.83 408.38c6.1.79 11.33 3.41 16.53 6.53l-2.09.68c-6.85-2.91-14.16-4.33-21.56-3-2.9.62-5.39 2.06-7.71 3.86a60.38 60.38 0 0 1-2.45-2.05c1.39-1.62 2.91-3.92 4.97-4.7 3.97-1.04 8.2-1.67 12.31-1.32z" class="L"/><path d="M182.27 415.59l-2.39.71c-1.71.3-3.48.4-5.22.59-2.28-1.28-4.42-2.89-6.81-3.94-2.23-.7-4.83-.47-7.14-.36 7.4-1.33 14.71.09 21.56 3z" class="J"/><path d="M281.55 411.47c7.46 10.29 13.15 21.7 17.47 33.63.18 1.35.31 2.71.4 4.08-1.43 1.05-2.83 1.86-4.5 2.47-1.71-14.43-8.39-25.81-14.94-38.43z" class="I"/><path d="M160.71 412.59c2.31-.11 4.91-.34 7.14.36 2.39 1.05 4.53 2.66 6.81 3.94 3.75 2.2 7.3 4.38 8.69 8.78 1.2 3.02-.67 5.42-1.73 8.16-9.22.22-18.31-5.86-24.06-12.65l1.37-2.82c2.69-.09 4.85-.19 7.11 1.52 5.06 3.44 10.84 5.38 15.94 8.74-.32-4.12-2.92-6.4-6.43-8.11-3.92-1.76-7.87-3.62-11.9-5.11-2.29-.9-4.26 1.89-5.99 3.03l-2.61.65-2.05-2.63c2.32-1.8 4.81-3.24 7.71-3.86z"/><path d="M150.55 414.4l2.45 2.05 2.05 2.63 2.61-.65 1.27-.07-1.37 2.82c5.75 6.79 14.84 12.87 24.06 12.65 1.06-2.74 2.93-5.14 1.73-8.16-1.39-4.4-4.94-6.58-8.69-8.78 1.74-.19 3.51-.29 5.22-.59 2.89 2.51 6.13 5.69 6.42 9.74.2 3.41-1.64 5.69-3.05 8.59 1.85-.49 4.45-.12 5.12-2.38 1.19-2.83-.5-6.45-1.44-9.16-.98-2.88-2.74-5.19-4.66-7.5l2.09-.68c2.36 1.37 5.38 2.5 7.15 4.58 2.16 2.53 3.92 5.44 5.78 8.19l-1.87 3.35c-1.9-3.46-3.98-6.73-6.32-9.91.94 3.38 2.85 7.32 2.38 10.84-1.09 2.81-4.07 6.38-7.45 5.91-4.12-.16-8.37-1.11-12.2-2.61-4.88-1.96-8.58-5.19-12.46-8.61-2.45-2.24-5.77-3.62-7.91-6.13-1.48-1.82-1.49-3.95-.91-6.12z" class="I"/><path d="M163.65 415.4c4.03 1.49 7.98 3.35 11.9 5.11 3.51 1.71 6.11 3.99 6.43 8.11-5.1-3.36-10.88-5.3-15.94-8.74-2.26-1.71-4.42-1.61-7.11-1.52l-1.27.07c1.73-1.14 3.7-3.93 5.99-3.03z" class="L"/><path d="M182.27 415.59c1.92 2.31 3.68 4.62 4.66 7.5.94 2.71 2.63 6.33 1.44 9.16-.67 2.26-3.27 1.89-5.12 2.38 1.41-2.9 3.25-5.18 3.05-8.59-.29-4.05-3.53-7.23-6.42-9.74.8-.22 1.6-.46 2.39-.71zm-103.52 3.27c3.28 1.94 5.41 4.83 7.29 8.07 7.96 13.49 18.71 25.39 31.14 34.9 4.96 4.41 10.23 8.43 15.51 12.45 2.98 2.11 5.98 4.04 8.4 6.83-6.76-2.55-11.18-7.16-16.84-11.38-4.76-3.57-9.1-7.54-13.64-11.37-4.36-3.79-8.67-7.09-12.36-11.6-4.03-5.04-8.34-9.75-11.78-15.25-2.81-4.45-6.12-7.87-7.72-12.65z"/><path d="M148.55 421.37c3.65 1.95 7.08 4.13 10.11 6.96 3.37 2.96 5.84 6.18 10.21 7.75 4.66 1.66 9.53 2.79 14.38 3.74 1.85.23 3.47.8 5.14-.37 3.13-2.21 5.08-5.2 7.03-8.42.64-1.1 1.26-2.23 1.87-3.35l1.53 2.36c-2.01 4.11-4.36 7.89-7.86 10.92-1.4 1.12-2.83 2.03-4.7 1.7-6.74-1.01-13.48-2.66-19.78-5.26-3.61-1.37-6.18-5.28-8.94-7.94-2.69-3.07-6.12-5.22-8.99-8.09z" class="L"/><path d="M331.76 421.09c3.2 11.74 2.69 25.62-3.19 36.48-5.5 9.98-14.92 16.36-23.38 23.62-6.12 5.07-9.87 11.71-15.61 17.39-5.4 5.83-11.45 10.9-18.66 14.34-5.95.78-11.88 1.01-17.71 2.64-7.83 2.25-15.13 1.53-23.21 1.94-10.86.36-21.15-1.49-31.9-2.57-8.19-1.2-16.14-4.06-24.18-6.02-6.84-1.56-12.61-4.88-18.71-8.18-3.62-1.98-7.11-4.15-10.36-6.71 5.65 2.24 10.83 5.38 16.48 7.65 3.86 1.61 7.87 2.71 11.76 4.22 9.72 4.21 20.48 6.62 30.96 7.95 8.4-.09 16.56 1.67 24.91 2.01 8.24-.7 16.37-1.07 24.44-2.99 4.71-.65 9.11-1.17 12.93-4.28-2.84-.01-5.69.12-8.51.48 6.35-2.07 12.45-4.42 18.03-8.18 11.17-7.15 20.29-16.09 29.38-25.67 4.79-4.83 11.63-6.56 16.62-11.4 5.24-4.55 6.41-11.96 8.65-18.28 2.84-8.33 1.51-15.89 1.26-24.44z" class="K"/><path d="M161.87 421.64c3.13 1.24 5.69 3.31 8.7 4.78 1.99 1 3.91 2.03 5.6 3.51-5.49-.04-11.79-3.27-14.3-8.29z" class="I"/><path d="M69.25 425.89c4.6 3.4 7 7.88 10.71 12.14 2.56 2.95 4.31 5.88 5.8 9.49-3.13-1.75-6.01-3.89-9.15-5.61-2.16-5.48-4.84-10.7-7.36-16.02z" class="J"/><path d="M260.58 426c1.61 2.96 3.84 6.02 4.63 9.32.61 3.81.33 7.82.36 11.68.05 7.52-.78 16-4.14 22.84-.75-.41-1.51-.8-2.27-1.18 2.12-7.37 4.49-14.97 5.07-22.65.47-6.27-1.24-12.13-3.89-17.74z" class="K"/><path d="M272.75 439.65c.82 2.57 1.11 4.83.65 7.51-.84 5.25-1.44 10.45-1.45 15.77l2.59-2.76c-.44 2.9-.73 5.83-1.32 8.7-.98 3.79-4.06 7.17-5.98 10.6 4.71-3.16 8.14-8.27 10.97-13.09 3.22-7.32 2.41-16.73 1.56-24.51 2.59 5.66 2.11 11.31 2.69 17.33 1.73-5.41 1.66-10.77 1.69-16.38 1.91 6.89.77 13.42-.98 20.18-3.83 8.43-10.7 15.66-18.31 20.83-5.39 3.78-10.65 8.37-16.45 11.34l-2.68-1.4c4.25-2.23 8.57-4.83 12.56-7.49 2.85-1.85 4.6-4.51 6.32-7.37 1.83-2.98 3.81-5.92 4.71-9.35 1.06-4.22 1.13-8.27 1.65-12.57.79-5.86.03-11.58 1.78-17.34z" class="I"/><path d="M286.95 441.97c1.15 3.81 1.35 7.78 2.32 11.61.42.72 1 1.34 1.76 1.86.52-3.57.64-7.1.41-10.71.61 3.3 1.67 6.84 1.5 10.19-.72 4.19-3.6 8.05-7.1 10.39.25-3.3.87-6.53 1.41-9.79.74-4.55.35-9.02-.3-13.55zm-9.19 1.87c1.17 5.92 1.16 12.14.79 18.14-.05 2.31-1.54 3.58-2.79 5.36-.77-1.33-1.07-2.67-.89-4.02.36-3.2.52-6.32.43-9.55-.24-3.87.69-6.56 2.46-9.93z" class="J"/><path d="M79.84 446.73c3.88 2.45 7.28 5.65 11.02 8.39 8.74 6.29 16.36 14.49 24.71 21.31 3.39 2.64 6.86 5.17 10.28 7.77 5.01 3.86 11.06 5.63 15.9 9.79-4.03-.67-7.69-3.76-11.29-5.62-8.56-4.65-15.76-11.05-23.97-16.23-4.3-2.68-6.79-6.95-10.81-9.89-6.04-4.17-11.81-9.35-15.84-15.52z"/><path d="M299.42 449.18c-.29 3.27-.53 5.27-3.31 7.32l-1.19-4.85c1.67-.61 3.07-1.42 4.5-2.47z" class="J"/><path d="M165.81 452.19c1.82.75 3.48 1.68 5.1 2.79-2.1-.54-3.66-1.09-5.1-2.79z" class="K"/><path d="M261.43 469.84c-5.82 10.71-15.65 17.29-26.67 21.83-9.4 1.4-19.68 3-29.11 1.68-3.1-.4-6.22-.5-9.32-.88-9.27-2.17-21.21-3.63-28.49-10.41 4.82.94 8.57 3.45 13.16 5.04 3.11 1.19 6.34 1.82 9.64 2.2 4.82.8 9.44 1.39 14.33 1.66 7.11 1.38 13.69-.07 20.77-.53 6.67-1.21 13.12-3.41 18.81-7.16 6.25-3.44 10.97-8.52 14.61-14.61zm-116.7 6.2c5.79 2.11 10.48 5.91 16.39 7.79 4.21 1.33 8.31 2.65 12.16 4.84 6.59 3.56 13.24 4.04 20.4 5.45 7.36 1.47 14.8 2.37 22.32 2.09 7.78.1 15.26.06 22.64-2.76 8.82-3.32 17.84-7.95 23.4-15.84l2.57 1.3c-1.72 2.86-3.47 5.52-6.32 7.37-3.99 2.66-8.31 5.26-12.56 7.49-7.86 3.07-16.3 4.54-24.73 4.37-8.83.14-17.58-.2-26.25-1.95-6.76-1.42-13.05-1.9-19.5-4.51-8.58-3.54-17.05-7.42-25.32-11.64-1.99-1-3.65-2.41-5.2-4z"/><path d="M241.73 481.79l2.82 1.48c-5.69 3.75-12.14 5.95-18.81 7.16-7.08.46-13.66 1.91-20.77.53-4.89-.27-9.51-.86-14.33-1.66l2.81-1.83c7.45 1.82 14.55 1.12 22.5 1.19 9.05-.88 17.95-1.97 25.78-6.87z" class="L"/><path d="M148.41 483.25c3.64 1.27 6.62 3.51 9.96 5.33 9.76 4.92 19.29 9.43 30.27 10.87 9.37 2.09 18.77 3.19 28.34 3.87 8.62.44 17.4-.84 25.86-2.45a132.05 132.05 0 0 1 4.43.16c-1.97 1.17-3.95 2.29-6.07 3.16-5.95 1.39-12.09 2.25-18.2 2.32-14.26-.67-28.39-2.72-42.25-6.11-8.35-2.13-16.5-6.16-24.32-9.79-3.56-1.66-6.5-3.53-8.02-7.36z" class="I"/><path d="M265.93 486.62l1.35.51c-2.21 2.92-4.42 5.83-6.3 8.99-6.55 3.11-12.56 6.64-19.78 8.07 2.12-.87 4.1-1.99 6.07-3.16a132.05 132.05 0 0 0-4.43-.16c2.43-.82 4.83-1.76 7.16-2.87 5.75-2.66 10.84-7.55 15.93-11.38z" class="J"/><path d="M234.76 491.67l3.88 1.78c-7.38 2.82-14.86 2.86-22.64 2.76-7.52.28-14.96-.62-22.32-2.09l2.65-1.65c3.1.38 6.22.48 9.32.88 9.43 1.32 19.71-.28 29.11-1.68z" class="I"/><path d="M267.12 498.42c-5.11 5.73-12.59 8.48-19.96 9.83 1.93-.92 3.84-1.96 5.71-2.99-2.66.21-5.33.41-7.98.75 7.75-1.7 14.8-4.98 22.23-7.59zm-.79 10.16c-3.82 3.11-8.22 3.63-12.93 4.28-3.86-1.06-7.61-1.66-11.62-1.18l16.04-2.62c2.82-.36 5.67-.49 8.51-.48z" class="J"/><path d="M201.97 517.71c6.96 1.06 13.99 1.61 20.94 2.72-7.51.29-13.77-.56-20.94-2.72z"/></svg>